<svg width="40" height="40" viewBox="0 0 40 40" fill="none" xmlns="http://www.w3.org/2000/svg">
<path d="M6 28.4316C6 28.7105 6.11078 28.9779 6.30796 29.1751C6.50515 29.3723 6.77259 29.4831 7.05145 29.4831H10.3957C10.611 30.0979 11.012 30.6306 11.5432 31.0075C12.0745 31.3844 12.7098 31.5868 13.3612 31.5868C14.0126 31.5868 14.6479 31.3844 15.1791 31.0075C15.7104 30.6306 16.1114 30.0979 16.3266 29.4831H32.2914C32.5703 29.4831 32.8377 29.3723 33.0349 29.1751C33.2321 28.9779 33.3429 28.7105 33.3429 28.4316C33.3429 28.1527 33.2321 27.8853 33.0349 27.6881C32.8377 27.4909 32.5703 27.3802 32.2914 27.3802H16.3277C16.1124 26.7653 15.7115 26.2326 15.1802 25.8557C14.6489 25.4788 14.0136 25.2764 13.3622 25.2764C12.7108 25.2764 12.0755 25.4788 11.5443 25.8557C11.013 26.2326 10.612 26.7653 10.3968 27.3802H7.05145C6.91337 27.3802 6.77665 27.4073 6.64908 27.4602C6.52151 27.513 6.4056 27.5905 6.30796 27.6881C6.21032 27.7857 6.13288 27.9017 6.08004 28.0292C6.0272 28.1568 6 28.2935 6 28.4316Z" fill="white"/>
<path d="M7.05145 35.7938H20.9123C21.1275 36.4087 21.5285 36.9413 22.0598 37.3183C22.5911 37.6952 23.2264 37.8976 23.8778 37.8976C24.5291 37.8976 25.1644 37.6952 25.6957 37.3183C26.227 36.9413 26.628 36.4087 26.8432 35.7938H32.2914C32.5703 35.7938 32.8377 35.683 33.0349 35.4859C33.2321 35.2887 33.3429 35.0213 33.3429 34.7424C33.3429 34.4635 33.2321 34.1961 33.0349 33.9989C32.8377 33.8017 32.5703 33.6909 32.2914 33.6909H26.8432C26.628 33.0761 26.227 32.5434 25.6957 32.1665C25.1644 31.7896 24.5291 31.5872 23.8778 31.5872C23.2264 31.5872 22.5911 31.7896 22.0598 32.1665C21.5285 32.5434 21.1275 33.0761 20.9123 33.6909H7.05145C6.77259 33.6909 6.50515 33.8017 6.30796 33.9989C6.11078 34.1961 6 34.4635 6 34.7424C6 35.0213 6.11078 35.2887 6.30796 35.4859C6.50515 35.683 6.77259 35.7938 7.05145 35.7938Z" fill="white"/>
<path d="M32.2915 2.00013H7.05154C6.91296 1.99832 6.77542 2.02428 6.64703 2.07648C6.51864 2.12867 6.40201 2.20606 6.30401 2.30406C6.20601 2.40206 6.12863 2.51869 6.07643 2.64708C6.02423 2.77546 5.99828 2.913 6.00009 3.05158V21.6798L12.6254 15.0784C12.7203 14.9787 12.8344 14.8994 12.9609 14.8451C13.0874 14.7909 13.2236 14.7629 13.3613 14.7629C13.4989 14.7629 13.6351 14.7909 13.7616 14.8451C13.8881 14.8994 14.0023 14.9787 14.0972 15.0784L17.5681 18.5275L25.249 10.8715C25.3439 10.7719 25.4581 10.6925 25.5846 10.6383C25.7111 10.5841 25.8473 10.5561 25.9849 10.5561C26.1225 10.5561 26.2587 10.5841 26.3852 10.6383C26.5117 10.6925 26.6259 10.7719 26.7208 10.8715L33.3461 17.4761V3.05158C33.3479 2.91274 33.3218 2.77494 33.2695 2.64634C33.2171 2.51774 33.1394 2.40097 33.0411 2.30293C32.9427 2.20488 32.8257 2.12757 32.697 2.07556C32.5682 2.02355 32.4304 1.9979 32.2915 2.00013ZM15.4652 12.6568C14.8411 12.6568 14.2311 12.4718 13.7122 12.1251C13.1933 11.7783 12.7888 11.2855 12.55 10.709C12.3112 10.1324 12.2487 9.49794 12.3705 8.88586C12.4922 8.27377 12.7927 7.71154 13.234 7.27025C13.6753 6.82896 14.2375 6.52844 14.8496 6.40669C15.4617 6.28494 16.0962 6.34742 16.6727 6.58625C17.2493 6.82507 17.7421 7.2295 18.0888 7.7484C18.4355 8.26731 18.6206 8.87737 18.6206 9.50144C18.6211 9.91597 18.5399 10.3265 18.3815 10.7096C18.2231 11.0927 17.9907 11.4407 17.6976 11.7339C17.4045 12.027 17.0564 12.2594 16.6734 12.4178C16.2903 12.5761 15.8797 12.6574 15.4652 12.6568Z" fill="white"/>
<path d="M33.3438 22.1219V20.4508L25.9826 13.0896L18.3131 20.7622C18.2155 20.8599 18.0995 20.9374 17.9719 20.9903C17.8443 21.0431 17.7076 21.0703 17.5694 21.0703C17.4313 21.0703 17.2945 21.0431 17.1669 20.9903C17.0393 20.9374 16.9234 20.8599 16.8257 20.7622L13.3631 17.2996L7.48828 23.1744H32.2954C32.5739 23.1736 32.8407 23.0623 33.0373 22.865C33.2338 22.6676 33.344 22.4004 33.3438 22.1219Z" fill="white"/>
<path d="M15.6512 10.9298C16.2245 10.9298 16.6892 10.2327 16.6892 9.37285C16.6892 8.51298 16.2245 7.81592 15.6512 7.81592C15.078 7.81592 14.6133 8.51298 14.6133 9.37285C14.6133 10.2327 15.078 10.9298 15.6512 10.9298Z" fill="white"/>
</svg>
