<svg width="40" height="40" viewBox="0 0 40 40" fill="none" xmlns="http://www.w3.org/2000/svg">
<path d="M20 4C16.8355 4 13.7421 4.93838 11.1109 6.69649C8.4797 8.45459 6.42894 10.9534 5.21793 13.8771C4.00693 16.8007 3.69008 20.0177 4.30744 23.1214C4.92481 26.2251 6.44866 29.0761 8.6863 31.3137C10.9239 33.5513 13.7749 35.0752 16.8786 35.6926C19.9823 36.3099 23.1993 35.9931 26.1229 34.7821C29.0466 33.5711 31.5454 31.5203 33.3035 28.8891C35.0616 26.2579 36 23.1645 36 20C36.0003 17.8988 35.5866 15.8181 34.7826 13.8767C33.9787 11.9354 32.8001 10.1715 31.3143 8.68567C29.8285 7.19988 28.0646 6.02134 26.1233 5.21736C24.1819 4.41338 22.1012 3.99972 20 4ZM22.0586 12.4311L21.0843 21.2853C21.0892 21.4316 21.065 21.5774 21.0129 21.7142C20.9608 21.851 20.882 21.976 20.7811 22.082C20.6801 22.188 20.559 22.2728 20.4249 22.3314C20.2908 22.39 20.1464 22.4214 20 22.4235C19.8536 22.4214 19.7092 22.39 19.5751 22.3314C19.441 22.2728 19.3199 22.188 19.219 22.082C19.118 21.976 19.0392 21.851 18.9871 21.7142C18.935 21.5774 18.9108 21.4316 18.9157 21.2853L17.8462 12.4311C17.8304 11.6906 19.2542 11.077 20.0011 11.077C20.7405 11.077 22.0744 11.6842 22.0586 12.4311ZM20 27.5382C19.7223 27.5279 19.4538 27.436 19.2279 27.2742C19.002 27.1123 18.8287 26.8876 18.7296 26.6279C18.6305 26.3683 18.6099 26.0853 18.6705 25.8141C18.7311 25.5428 18.8701 25.2954 19.0702 25.1026C19.2704 24.9098 19.5228 24.7802 19.7961 24.7298C20.0694 24.6794 20.3515 24.7105 20.6072 24.8193C20.8629 24.928 21.081 25.1096 21.2343 25.3414C21.3876 25.5732 21.4694 25.8449 21.4694 26.1228C21.4676 26.3128 21.428 26.5005 21.3529 26.6749C21.2777 26.8494 21.1686 27.0072 21.0318 27.1389C20.8949 27.2707 20.7332 27.3739 20.5561 27.4425C20.3789 27.511 20.1899 27.5436 20 27.5382Z" fill="white"/>
</svg>
