<svg width="40" height="40" viewBox="0 0 40 40" fill="none" xmlns="http://www.w3.org/2000/svg">
<path d="M18.418 8.60449L17.6063 9.7834C17.5197 9.90925 17.4038 10.0122 17.2686 10.0832C17.1333 10.1543 16.9828 10.1915 16.8301 10.1915C16.6773 10.1915 16.5268 10.1543 16.3916 10.0832C16.2563 10.0122 16.1404 9.90925 16.0538 9.7834L15.2421 8.60449L14.4304 9.7834C14.3437 9.90925 14.2278 10.0122 14.0926 10.0832C13.9573 10.1543 13.8069 10.1915 13.6541 10.1915C13.5013 10.1915 13.3508 10.1543 13.2156 10.0832C13.0803 10.0122 12.9644 9.90925 12.8778 9.7834L12.0661 8.60449L11.4219 9.54136V15.967H19.0604V9.54136L18.418 8.60449Z" fill="white"/>
<path d="M4 26.2781V30.76C4.00122 31.8248 4.42475 32.8456 5.17767 33.5985C5.93059 34.3514 6.95143 34.775 8.01622 34.7762H31.9838C33.0486 34.775 34.0694 34.3514 34.8223 33.5985C35.5753 32.8456 35.9988 31.8248 36 30.76V26.2781H4ZM22.3215 30.5271H17.6785C17.4286 30.5271 17.1889 30.4278 17.0122 30.2511C16.8354 30.0744 16.7361 29.8347 16.7361 29.5847C16.7361 29.3348 16.8354 29.0951 17.0122 28.9184C17.1889 28.7416 17.4286 28.6423 17.6785 28.6423H22.3224C22.5723 28.6423 22.812 28.7416 22.9888 28.9184C23.1655 29.0951 23.2648 29.3348 23.2648 29.5847C23.2648 29.8347 23.1655 30.0744 22.9888 30.2511C22.812 30.4278 22.5723 30.5271 22.3224 30.5271H22.3215Z" fill="white"/>
<path d="M33.3704 13.3882C33.3236 13.1792 33.2069 12.9923 33.0396 12.8585C32.8723 12.7246 32.6644 12.6518 32.4501 12.652H29.137V11.3746H32.3231C32.5731 11.3746 32.8128 11.2753 32.9895 11.0986C33.1662 10.9218 33.2655 10.6821 33.2655 10.4322V6.94239C33.2655 6.69246 33.1662 6.45275 32.9895 6.27602C32.8128 6.09929 32.5731 6 32.3231 6H24.0643C23.8144 6 23.5747 6.09929 23.3979 6.27602C23.2212 6.45275 23.1219 6.69246 23.1219 6.94239V10.4322C23.1219 10.6821 23.2212 10.9218 23.3979 11.0986C23.5747 11.2753 23.8144 11.3746 24.0643 11.3746H27.2504V12.6501H20.9435V16.9084C20.9435 17.1583 20.8442 17.398 20.6675 17.5748C20.4908 17.7515 20.2511 17.8508 20.0011 17.8508H10.475C10.2251 17.8508 9.9854 17.7515 9.80866 17.5748C9.63193 17.398 9.53264 17.1583 9.53264 16.9084V12.6501H7.55122C7.33698 12.65 7.12907 12.7228 6.96178 12.8566C6.79448 12.9905 6.67778 13.1773 6.63092 13.3864L4.1875 24.3933H35.8148L33.3704 13.3882ZM12.4868 21.8054H11.5555C11.3055 21.8054 11.0658 21.7061 10.8891 21.5293C10.7124 21.3526 10.6131 21.1129 10.6131 20.863C10.6131 20.613 10.7124 20.3733 10.8891 20.1966C11.0658 20.0199 11.3055 19.9206 11.5555 19.9206H12.4868C12.7368 19.9206 12.9765 20.0199 13.1532 20.1966C13.3299 20.3733 13.4292 20.613 13.4292 20.863C13.4292 21.1129 13.3299 21.3526 13.1532 21.5293C12.9765 21.7061 12.7368 21.8054 12.4868 21.8054ZM17.2117 21.8054H16.2794C16.0295 21.8054 15.7898 21.7061 15.613 21.5293C15.4363 21.3526 15.337 21.1129 15.337 20.863C15.337 20.613 15.4363 20.3733 15.613 20.1966C15.7898 20.0199 16.0295 19.9206 16.2794 19.9206H17.2108C17.4607 19.9206 17.7004 20.0199 17.8771 20.1966C18.0539 20.3733 18.1532 20.613 18.1532 20.863C18.1532 21.1129 18.0539 21.3526 17.8771 21.5293C17.7004 21.7061 17.4607 21.8054 17.2108 21.8054H17.2117ZM21.9365 21.8054H21.0043C20.7543 21.8054 20.5146 21.7061 20.3379 21.5293C20.1612 21.3526 20.0619 21.1129 20.0619 20.863C20.0619 20.613 20.1612 20.3733 20.3379 20.1966C20.5146 20.0199 20.7543 19.9206 21.0043 19.9206H21.9356C22.1856 19.9206 22.4253 20.0199 22.602 20.1966C22.7787 20.3733 22.878 20.613 22.878 20.863C22.878 21.1129 22.7787 21.3526 22.602 21.5293C22.4253 21.7061 22.1856 21.8054 21.9356 21.8054H21.9365ZM29.137 20.863C29.137 21.1129 29.0377 21.3526 28.861 21.5293C28.6843 21.7061 28.4446 21.8054 28.1946 21.8054C27.9447 21.8054 27.705 21.7061 27.5283 21.5293C27.3515 21.3526 27.2522 21.1129 27.2522 20.863V17.5609C27.2522 17.311 27.3515 17.0713 27.5283 16.8945C27.705 16.7178 27.9447 16.6185 28.1946 16.6185C28.4446 16.6185 28.6843 16.7178 28.861 16.8945C29.0377 17.0713 29.137 17.311 29.137 17.5609V20.863Z" fill="white"/>
</svg>
