<svg width="40" height="40" viewBox="0 0 40 40" fill="none" xmlns="http://www.w3.org/2000/svg">
<path d="M7.66939 16.5543C7.66939 16.973 7.88874 17.1546 8.27301 17.3229V15.7456C8.09309 15.7874 7.93376 15.8915 7.82327 16.0396C7.71278 16.1876 7.65827 16.37 7.66939 16.5543Z" fill="white"/>
<path d="M9.61328 19.3667V20.9909C10.1385 20.8966 10.4014 20.6359 10.4019 20.2089C10.4011 19.7426 10.0612 19.5526 9.61328 19.3667Z" fill="white"/>
<path d="M33.551 10H3.98669C3.45979 10 2.95447 10.2093 2.58189 10.5819C2.20931 10.9545 2 11.4598 2 11.9867L2 25.0697C2 25.5966 2.20931 26.102 2.58189 26.4745C2.95447 26.8471 3.45979 27.0564 3.98669 27.0564H33.551C34.0779 27.0564 34.5832 26.8471 34.9558 26.4745C35.3284 26.102 35.5377 25.5966 35.5377 25.0697V11.9867C35.5377 11.4598 35.3284 10.9545 34.9558 10.5819C34.5832 10.2093 34.0779 10 33.551 10ZM16.0592 12.8833H24.4966C24.7867 12.8833 25.0649 12.9986 25.2701 13.2037C25.4752 13.4088 25.5904 13.6871 25.5904 13.9772C25.5904 14.2673 25.4752 14.5455 25.2701 14.7506C25.0649 14.9557 24.7867 15.071 24.4966 15.071H16.0592C15.7691 15.071 15.4909 14.9557 15.2858 14.7506C15.0807 14.5455 14.9654 14.2673 14.9654 13.9772C14.9654 13.6871 15.0807 13.4088 15.2858 13.2037C15.4909 12.9986 15.7691 12.8833 16.0592 12.8833ZM9.61357 22.3907V23.3719C9.61357 23.4518 9.58181 23.5285 9.52529 23.585C9.46877 23.6415 9.39211 23.6733 9.31217 23.6733H8.57543C8.4955 23.6733 8.41883 23.6415 8.36231 23.585C8.30579 23.5285 8.27403 23.4518 8.27403 23.3719V22.3672C7.45991 22.2582 6.67795 21.9786 5.97925 21.5468C5.91505 21.5068 5.86822 21.4442 5.84806 21.3713C5.8279 21.2984 5.83588 21.2206 5.87041 21.1533L6.26557 20.3814C6.28496 20.3435 6.31216 20.3101 6.34538 20.2835C6.3786 20.2569 6.41708 20.2376 6.45828 20.2269C6.49949 20.2162 6.5425 20.2144 6.58446 20.2215C6.62643 20.2287 6.6664 20.2446 6.70176 20.2684C7.18853 20.5687 7.71892 20.7918 8.27403 20.9297V18.9472C6.99394 18.5881 6.07385 18.1209 6.07385 16.8048C6.06297 16.1952 6.28418 15.6042 6.69269 15.1515C7.1012 14.6989 7.66648 14.4184 8.27403 14.3669V13.3991C8.27403 13.3191 8.30579 13.2425 8.36231 13.1859C8.41883 13.1294 8.4955 13.0977 8.57543 13.0977H9.31217C9.39211 13.0977 9.46877 13.1294 9.52529 13.1859C9.58181 13.2425 9.61357 13.3191 9.61357 13.3991V14.3401C10.2929 14.4373 10.9454 14.6715 11.5316 15.0283C11.598 15.0684 11.6463 15.1325 11.6666 15.2074C11.6868 15.2822 11.6775 15.362 11.6404 15.4301L11.2553 16.1376C11.2358 16.173 11.2093 16.2041 11.1775 16.2291C11.1456 16.2541 11.1091 16.2724 11.07 16.2829C11.031 16.2935 10.9902 16.296 10.9501 16.2905C10.91 16.2849 10.8715 16.2714 10.8367 16.2506C10.4566 16.0255 10.0461 15.8564 9.61775 15.7483V17.7266C10.9573 18.1 12.0591 18.5228 12.0591 20.0532C12.0549 21.5057 11.0845 22.2391 9.61357 22.3907ZM14.9658 18.5303C14.9658 18.3867 14.9941 18.2445 15.0491 18.1119C15.104 17.9792 15.1846 17.8587 15.2861 17.7572C15.3876 17.6556 15.5082 17.5751 15.6408 17.5201C15.7735 17.4652 15.9156 17.4369 16.0592 17.4369H32.0792C32.3693 17.4369 32.6475 17.5522 32.8526 17.7573C33.0578 17.9624 33.173 18.2406 33.173 18.5307C33.173 18.8208 33.0578 19.099 32.8526 19.3042C32.6475 19.5093 32.3693 19.6245 32.0792 19.6245H16.0592C15.9156 19.6245 15.7733 19.5962 15.6406 19.5412C15.5079 19.4862 15.3873 19.4056 15.2858 19.304C15.1842 19.2024 15.1037 19.0817 15.0488 18.949C14.9939 18.8162 14.9657 18.674 14.9658 18.5303ZM32.0792 24.1488H26.3192C26.0291 24.1488 25.7509 24.0336 25.5458 23.8284C25.3406 23.6233 25.2254 23.3451 25.2254 23.055C25.2254 22.7649 25.3406 22.4867 25.5458 22.2816C25.7509 22.0764 26.0291 21.9612 26.3192 21.9612H32.0792C32.3693 21.9612 32.6475 22.0764 32.8526 22.2816C33.0578 22.4867 33.173 22.7649 33.173 23.055C33.173 23.3451 33.0578 23.6233 32.8526 23.8284C32.6475 24.0336 32.3693 24.1488 32.0792 24.1488Z" fill="white"/>
<path d="M36.3273 29.564H6.1878C5.80201 29.5632 5.42823 29.4297 5.12937 29.1857C4.83051 28.9417 4.6248 28.6023 4.54688 28.2244C4.66299 28.2494 4.78141 28.262 4.90018 28.2621H35.0397C35.4837 28.2621 35.9096 28.0857 36.2236 27.7717C36.5377 27.4577 36.7141 27.0318 36.7141 26.5877V12.3551C36.7141 12.2427 36.7029 12.1305 36.6806 12.0203C37.054 12.1023 37.3884 12.3091 37.6286 12.6066C37.8687 12.9042 38.0003 13.2746 38.0017 13.657V27.8895C38.0017 28.3336 37.8253 28.7595 37.5113 29.0735C37.1973 29.3875 36.7714 29.564 36.3273 29.564Z" fill="white"/>
</svg>
