<svg width="40" height="40" viewBox="0 0 40 40" fill="none" xmlns="http://www.w3.org/2000/svg">
<path d="M20.3182 15.5564C23.456 15.5564 25.9997 12.9694 25.9997 9.77822C25.9997 6.587 23.456 4 20.3182 4C17.1804 4 14.6367 6.587 14.6367 9.77822C14.6367 12.9694 17.1804 15.5564 20.3182 15.5564Z" fill="white"/>
<path d="M32.1984 15.5564C34.4804 15.5564 36.3304 14.1454 36.3304 12.4047C36.3304 10.664 34.4804 9.25293 32.1984 9.25293C29.9164 9.25293 28.0664 10.664 28.0664 12.4047C28.0664 14.1454 29.9164 15.5564 32.1984 15.5564Z" fill="white"/>
<path d="M7.92409 15.5564C9.92087 15.5564 11.5396 14.1454 11.5396 12.4047C11.5396 10.664 9.92087 9.25293 7.92409 9.25293C5.92731 9.25293 4.30859 10.664 4.30859 12.4047C4.30859 14.1454 5.92731 15.5564 7.92409 15.5564Z" fill="white"/>
<path d="M11.4354 20.0287C9.91277 18.7606 8.53475 18.9277 6.77452 18.9277C5.51249 18.9252 4.30101 19.4319 3.40591 20.3367C2.51081 21.2415 2.0052 22.4705 2 23.7541L2 31.5641C2.00164 32.1203 2.22003 32.6531 2.6073 33.0458C2.99458 33.4385 3.51913 33.659 4.066 33.659C8.98927 33.659 8.39633 33.7493 8.39633 33.4426C8.39839 27.9091 7.7538 23.8507 11.4354 20.0287Z" fill="white"/>
<path d="M21.6723 18.9562C18.5981 18.6956 15.9257 18.9562 13.6211 20.8945C9.76391 24.0368 10.5066 28.2675 10.5066 33.4427C10.5077 34.1066 10.7675 34.743 11.2291 35.2125C11.6907 35.6819 12.3165 35.9462 12.9693 35.9473C27.8114 35.9473 28.4013 36.4337 29.2814 34.4523C29.5696 33.782 29.488 33.9953 29.488 27.5825C29.49 22.4882 25.1535 18.9562 21.6723 18.9562Z" fill="white"/>
<path d="M33.2234 18.9278C31.4539 18.9278 30.0831 18.7618 28.5625 20.0288C32.2162 23.8225 31.5995 27.6046 31.5995 33.4438C31.5995 33.7526 31.1068 33.6602 35.8565 33.6602C36.4232 33.6607 36.9669 33.4326 37.3684 33.0259C37.7699 32.6191 37.9963 32.067 37.9979 31.4907V23.7542C37.9927 22.4707 37.4871 21.2417 36.592 20.3369C35.6969 19.432 34.4854 18.9253 33.2234 18.9278V18.9278Z" fill="white"/>
</svg>
