<svg width="40" height="40" viewBox="0 0 40 40" fill="none" xmlns="http://www.w3.org/2000/svg">
<path d="M27.1722 5.68145C27.1716 5.08424 27.3659 4.50314 27.7256 4.02637H5.65509C5.21629 4.02689 4.79562 4.20144 4.48534 4.51171C4.17507 4.82199 4.00052 5.24266 4 5.68145V6.23282H27.1722V5.68145Z" fill="white"/>
<path d="M8.61368 35.7586C8.18015 35.7565 7.76515 35.5825 7.45971 35.2748C7.15426 34.9672 6.98332 34.5509 6.98438 34.1174V7.30773H25.9906C26.1352 7.30694 26.2736 7.24889 26.3754 7.14629C26.4773 7.04369 26.5343 6.9049 26.534 6.76033V5.6695C26.5287 5.45222 26.5668 5.23606 26.6463 5.03375C26.7257 4.83145 26.8449 4.64708 26.9966 4.49151C27.1484 4.33594 27.3298 4.21231 27.5301 4.1279C27.7304 4.04349 27.9455 4 28.1628 4C28.3802 4 28.5953 4.04349 28.7956 4.1279C28.9959 4.21231 29.1773 4.33594 29.3291 4.49151C29.4808 4.64708 29.6 4.83145 29.6794 5.03375C29.7589 5.23606 29.797 5.45222 29.7917 5.6695V32.4762H10.7854C10.6409 32.4769 10.5027 32.535 10.401 32.6377C10.2993 32.7403 10.2425 32.8791 10.243 33.0236V34.1144C10.2448 34.5484 10.0742 34.9655 9.76872 35.2738C9.46319 35.5821 9.04773 35.7565 8.61368 35.7586ZM27.6199 30.2876V31.3784H28.7107V30.2876H27.6199ZM8.07025 30.2876V31.3784H26.535V30.2876H8.07025ZM10.243 28.098V29.1888H28.7018V28.098H10.243ZM8.07025 28.098V29.1888H9.16108V28.098H8.07025ZM27.6199 25.9094V27.0002H28.7107V25.9094H27.6199ZM8.07025 25.9094V27.0002H26.535V25.9094H8.07025ZM10.243 23.7208V24.8116H28.7018V23.7208H10.243ZM8.07025 23.7208V24.8116H9.16108V23.7208H8.07025ZM27.6199 21.5322V22.623H28.7107V21.5322H27.6199ZM8.07025 21.5322V22.623H26.535V21.5322H8.07025ZM10.243 19.3435V20.4344H28.7018V19.3435H10.243ZM8.07025 19.3435V20.4344H9.16108V19.3435H8.07025ZM12.9582 8.40252C11.9826 8.39506 11.0268 8.67752 10.212 9.21409C9.39722 9.75065 8.76016 10.5171 8.38164 11.4163C8.00313 12.3155 7.90021 13.3068 8.08595 14.2646C8.27169 15.2223 8.73772 16.1033 9.42491 16.7958C10.1121 17.4883 10.9895 17.9611 11.9458 18.1542C12.9021 18.3473 13.8942 18.252 14.7962 17.8804C15.6983 17.5088 16.4696 16.8776 17.0124 16.067C17.5553 15.2563 17.8451 14.3027 17.8451 13.3271C17.8464 12.6942 17.7258 12.067 17.4901 11.4797L16.4825 11.8912C16.7826 12.6462 16.8325 13.4776 16.625 14.2631C16.4176 15.0486 15.9636 15.7468 15.3299 16.2552C14.6962 16.7636 13.9161 17.0553 13.1043 17.0875C12.2925 17.1197 11.4917 16.8906 10.8198 16.434C10.1478 15.9774 9.63996 15.3173 9.37095 14.5507C9.10195 13.784 9.08592 12.9514 9.32523 12.175C9.56454 11.3986 10.0466 10.7194 10.7005 10.2372C11.3544 9.75509 12.1457 9.4954 12.9582 9.49633C13.6021 9.49665 14.2353 9.66152 14.7977 9.9753L15.3253 9.01934C14.6019 8.61491 13.7869 8.40256 12.9582 8.40252ZM11.3289 14.0808C11.353 14.3595 11.4713 14.6217 11.6644 14.8241C11.8574 15.0265 12.1137 15.1571 12.3909 15.1944V15.8261H13.2567V15.2014C13.8993 15.0784 14.2672 14.7055 14.2672 14.169C14.2672 13.3539 13.5809 13.0643 12.9106 12.8888C12.2799 12.7232 12.0419 12.5536 12.0419 12.2631C12.0419 11.9358 12.3473 11.7246 12.8213 11.7246C13.2953 11.7246 13.5234 11.9229 13.5432 12.3355H14.1809C14.1741 12.0733 14.0789 11.8212 13.9107 11.6199C13.7426 11.4187 13.5114 11.2801 13.2547 11.2268V10.5901H12.3909V11.2188C12.1252 11.2454 11.8777 11.3657 11.6925 11.5581C11.5074 11.7505 11.3968 12.0025 11.3804 12.269C11.3804 12.864 11.8118 13.2458 12.737 13.4699C13.4996 13.6534 13.6027 13.9271 13.6027 14.171C13.6027 14.415 13.3985 14.6917 12.8233 14.6917C12.1599 14.6917 11.9893 14.3594 11.9625 14.0808H11.3289Z" fill="white"/>
<path d="M12.8277 33.8198V34.3712C12.8292 34.9681 12.6359 35.5491 12.2773 36.0263H34.3458C34.7846 36.0257 35.2053 35.8512 35.5156 35.5409C35.8259 35.2307 36.0004 34.81 36.0009 34.3712V33.8198H12.8277Z" fill="white"/>
</svg>
