<svg width="40" height="40" viewBox="0 0 40 40" fill="none" xmlns="http://www.w3.org/2000/svg">
<path d="M35.321 11.3967H34.8502V26.6094C34.8435 27.6632 34.4185 28.6711 33.6686 29.4116C32.9188 30.152 31.9056 30.5643 30.8519 30.5578H6.48052V31.0804C6.47829 31.4236 6.54368 31.7637 6.67295 32.0816C6.80223 32.3994 6.99286 32.6887 7.23395 32.9328C7.47504 33.177 7.76187 33.3713 8.07806 33.5045C8.39424 33.6378 8.73359 33.7075 9.0767 33.7096H35.321C36.0247 33.7154 36.7019 33.4418 37.2041 32.9489C37.7064 32.456 37.9926 31.7841 38.0001 31.0804V14.0598C37.9956 13.3521 37.7114 12.6749 37.2095 12.176C36.7076 11.6771 36.0287 11.397 35.321 11.3967Z" fill="white"/>
<path d="M30.8659 29.3176H4.65457C3.94994 29.3168 3.27447 29.0362 2.77667 28.5376C2.27887 28.0389 1.9995 27.3629 2 26.6583V9.65456C2.00075 8.95076 2.28067 8.276 2.77833 7.77833C3.276 7.28066 3.95076 7.00075 4.65457 7H30.8659C31.5697 7.00075 32.2445 7.28066 32.7422 7.77833C33.2398 8.276 33.5197 8.95076 33.5205 9.65456V26.6583C33.521 27.3629 33.2416 28.0389 32.7438 28.5376C32.246 29.0362 31.5705 29.3168 30.8659 29.3176ZM5.14235 25.0132C4.91171 25.0132 4.69052 25.1048 4.52743 25.2679C4.36434 25.431 4.27272 25.6522 4.27272 25.8828C4.27272 26.1135 4.36434 26.3347 4.52743 26.4977C4.69052 26.6608 4.91171 26.7524 5.14235 26.7524H30.3621C30.5928 26.7524 30.814 26.6608 30.977 26.4977C31.1401 26.3347 31.2318 26.1135 31.2318 25.8828C31.2318 25.6522 31.1401 25.431 30.977 25.2679C30.814 25.1048 30.5928 25.0132 30.3621 25.0132H5.14235ZM15.6043 12.0596C15.4299 12.0611 15.2631 12.131 15.1398 12.2543C15.0165 12.3776 14.9466 12.5444 14.9451 12.7188V23.0084C14.9466 23.1827 15.0165 23.3495 15.1398 23.4728C15.2631 23.5961 15.4299 23.6661 15.6043 23.6675H18.7561C18.9304 23.6661 19.0972 23.5961 19.2205 23.4728C19.3438 23.3495 19.4137 23.1827 19.4152 23.0084V12.7235C19.4137 12.5491 19.3438 12.3823 19.2205 12.259C19.0972 12.1357 18.9304 12.0658 18.7561 12.0643L15.6043 12.0596ZM10.2952 15.6266C10.1208 15.6281 9.95399 15.698 9.83069 15.8213C9.70739 15.9446 9.63747 16.1114 9.63599 16.2858V23.0084C9.63747 23.1827 9.70739 23.3495 9.83069 23.4728C9.95399 23.5961 10.1208 23.6661 10.2952 23.6675H13.4469C13.6213 23.6661 13.7881 23.5961 13.9114 23.4728C14.0347 23.3495 14.1046 23.1827 14.1061 23.0084V16.2905C14.1046 16.1161 14.0347 15.9493 13.9114 15.826C13.7881 15.7027 13.6213 15.6328 13.4469 15.6313L10.2952 15.6266ZM4.98697 18.1117C4.81261 18.1132 4.6458 18.1831 4.5225 18.3064C4.3992 18.4297 4.32928 18.5965 4.32781 18.7709V23.0084C4.32928 23.1827 4.3992 23.3495 4.5225 23.4728C4.6458 23.5961 4.81261 23.6661 4.98697 23.6675H8.13874C8.31311 23.6661 8.47991 23.5961 8.60321 23.4728C8.72651 23.3495 8.79643 23.1827 8.79791 23.0084V18.7784C8.79643 18.604 8.72651 18.4372 8.60321 18.3139C8.47991 18.1906 8.31311 18.1207 8.13874 18.1192L4.98697 18.1117ZM22.9728 20.6617C22.6269 20.6617 22.2952 20.7991 22.0506 21.0437C21.806 21.2883 21.6686 21.62 21.6686 21.9659C21.6686 22.3118 21.806 22.6436 22.0506 22.8882C22.2952 23.1327 22.6269 23.2702 22.9728 23.2702H29.9299C30.2758 23.2702 30.6075 23.1327 30.8521 22.8882C31.0967 22.6436 31.2341 22.3118 31.2341 21.9659C31.2341 21.62 31.0967 21.2883 30.8521 21.0437C30.6075 20.7991 30.2758 20.6617 29.9299 20.6617H22.9728ZM22.276 18.3386C22.1001 18.3386 21.9313 18.4085 21.8069 18.5329C21.6825 18.6574 21.6126 18.8261 21.6126 19.002C21.6126 19.178 21.6825 19.3467 21.8069 19.4711C21.9313 19.5956 22.1001 19.6654 22.276 19.6654H30.4102C30.5861 19.6654 30.7548 19.5956 30.8792 19.4711C31.0037 19.3467 31.0736 19.178 31.0736 19.002C31.0736 18.8261 31.0037 18.6574 30.8792 18.5329C30.7548 18.4085 30.5861 18.3386 30.4102 18.3386H22.276ZM22.276 15.6229C22.1012 15.6229 21.9335 15.6923 21.8099 15.8159C21.6863 15.9395 21.6168 16.1072 21.6168 16.282C21.6183 16.4564 21.6882 16.6232 21.8115 16.7465C21.9348 16.8698 22.1016 16.9397 22.276 16.9412H30.4102C30.5861 16.9412 30.7548 16.8713 30.8792 16.7469C31.0037 16.6225 31.0736 16.4537 31.0736 16.2778C31.0736 16.1018 31.0037 15.9331 30.8792 15.8087C30.7548 15.6843 30.5861 15.6144 30.4102 15.6144L22.276 15.6229ZM29.9308 11.9645C29.6727 11.9643 29.4202 12.0407 29.2055 12.184C28.9907 12.3273 28.8233 12.531 28.7244 12.7695C28.6254 13.008 28.5995 13.2704 28.6497 13.5237C28.7 13.7769 28.8242 14.0096 29.0067 14.1922C29.1892 14.3748 29.4217 14.4992 29.6749 14.5496C29.9281 14.6001 30.1906 14.5743 30.4291 14.4755C30.6677 14.3768 30.8716 14.2095 31.015 13.9948C31.1585 13.7802 31.2351 13.5278 31.2351 13.2696C31.2336 12.924 31.0952 12.593 30.8502 12.3491C30.6053 12.1052 30.2737 11.9682 29.928 11.9682L29.9308 11.9645ZM22.276 12.8854C22.1012 12.8854 21.9335 12.9549 21.8099 13.0785C21.6863 13.2021 21.6168 13.3698 21.6168 13.5446C21.6183 13.719 21.6882 13.8858 21.8115 14.0091C21.9348 14.1324 22.1016 14.2023 22.276 14.2038H26.1821C26.358 14.2038 26.5267 14.1339 26.6512 14.0095C26.7756 13.885 26.8455 13.7163 26.8455 13.5404C26.8455 13.3644 26.7756 13.1957 26.6512 13.0713C26.5267 12.9468 26.358 12.877 26.1821 12.877L22.276 12.8854Z" fill="white"/>
</svg>
