<svg width="40" height="40" viewBox="0 0 40 40" fill="none" xmlns="http://www.w3.org/2000/svg">
<path d="M19.8322 28.3239C20.2811 28.3239 20.6449 27.96 20.6449 27.5112C20.6449 27.0623 20.2811 26.6985 19.8322 26.6985C19.3834 26.6985 19.0195 27.0623 19.0195 27.5112C19.0195 27.96 19.3834 28.3239 19.8322 28.3239Z" fill="white"/>
<path d="M33.2386 28.3239C33.9118 28.3239 34.4576 27.96 34.4576 27.5112C34.4576 27.0623 33.9118 26.6985 33.2386 26.6985C32.5653 26.6985 32.0195 27.0623 32.0195 27.5112C32.0195 27.96 32.5653 28.3239 33.2386 28.3239Z" fill="white"/>
<path d="M26.3361 28.3239C26.785 28.3239 27.1488 27.96 27.1488 27.5112C27.1488 27.0623 26.785 26.6985 26.3361 26.6985C25.8873 26.6985 25.5234 27.0623 25.5234 27.5112C25.5234 27.96 25.8873 28.3239 26.3361 28.3239Z" fill="white"/>
<path d="M6.82852 28.3239C7.7262 28.3239 8.45391 27.96 8.45391 27.5112C8.45391 27.0623 7.7262 26.6985 6.82852 26.6985C5.93084 26.6985 5.20312 27.0623 5.20312 27.5112C5.20312 27.96 5.93084 28.3239 6.82852 28.3239Z" fill="white"/>
<path d="M13.7347 28.3239C14.4079 28.3239 14.9537 27.96 14.9537 27.5112C14.9537 27.0623 14.4079 26.6985 13.7347 26.6985C13.0614 26.6985 12.5156 27.0623 12.5156 27.5112C12.5156 27.96 13.0614 28.3239 13.7347 28.3239Z" fill="white"/>
<path d="M34.824 24.3083H5.17601C4.32907 24.3218 3.52137 24.6677 2.9272 25.2714C2.33302 25.875 2 26.6881 2 27.5352C2 28.3822 2.33302 29.1953 2.9272 29.799C3.52137 30.4027 4.32907 30.7485 5.17601 30.762H34.824C35.6709 30.7485 36.4786 30.4027 37.0728 29.799C37.667 29.1953 38 28.3822 38 27.5352C38 26.6881 37.667 25.875 37.0728 25.2714C36.4786 24.6677 35.6709 24.3218 34.824 24.3083V24.3083ZM7.11104 30.1167C6.6004 30.1173 6.10105 29.9665 5.67616 29.6833C5.25127 29.4 4.91993 28.9972 4.72407 28.5256C4.52822 28.054 4.47664 27.5349 4.57586 27.034C4.67509 26.5331 4.92066 26.0729 5.28151 25.7116C5.64235 25.3503 6.10226 25.1041 6.60304 25.0043C7.10382 24.9044 7.62296 24.9553 8.09479 25.1506C8.56662 25.3459 8.96993 25.6767 9.25369 26.1012C9.53745 26.5258 9.68891 27.0249 9.68891 27.5356C9.68912 27.8744 9.62259 28.2099 9.4931 28.523C9.36362 28.8361 9.17372 29.1206 8.93426 29.3603C8.69479 29.6 8.41045 29.7902 8.09748 29.92C7.78451 30.0497 7.44904 30.1166 7.11023 30.1167H7.11104ZM13.5565 30.1167C13.0459 30.1173 12.5465 29.9665 12.1217 29.6833C11.6968 29.4 11.3654 28.9972 11.1696 28.5256C10.9737 28.054 10.9221 27.5349 11.0214 27.034C11.1206 26.5331 11.3662 26.0729 11.727 25.7116C12.0879 25.3503 12.5478 25.1041 13.0485 25.0043C13.5493 24.9044 14.0685 24.9553 14.5403 25.1506C15.0121 25.3459 15.4154 25.6767 15.6992 26.1012C15.9829 26.5258 16.1344 27.0249 16.1344 27.5356C16.1346 27.8744 16.0681 28.2101 15.9385 28.5232C15.809 28.8363 15.619 29.1209 15.3795 29.3606C15.1399 29.6003 14.8555 29.7904 14.5424 29.9202C14.2294 30.0499 13.8938 30.1167 13.5549 30.1167H13.5565ZM20.002 30.1167C19.4914 30.1173 18.992 29.9665 18.5672 29.6833C18.1423 29.4 17.8109 28.9972 17.6151 28.5256C17.4192 28.054 17.3676 27.5349 17.4669 27.034C17.5661 26.5331 17.8117 26.0729 18.1725 25.7116C18.5333 25.3503 18.9933 25.1041 19.494 25.0043C19.9948 24.9044 20.514 24.9553 20.9858 25.1506C21.4576 25.3459 21.8609 25.6767 22.1447 26.1012C22.4284 26.5258 22.5799 27.0249 22.5799 27.5356C22.5801 27.8744 22.5136 28.2101 22.384 28.5232C22.2545 28.8363 22.0645 29.1209 21.825 29.3606C21.5854 29.6003 21.301 29.7904 20.9879 29.9202C20.6748 30.0499 20.3393 30.1167 20.0004 30.1167H20.002ZM26.4475 30.1167C25.9369 30.1173 25.4375 29.9665 25.0126 29.6833C24.5878 29.4 24.2564 28.9972 24.0606 28.5256C23.8647 28.054 23.8131 27.5349 23.9124 27.034C24.0116 26.5331 24.2571 26.0729 24.618 25.7116C24.9788 25.3503 25.4388 25.1041 25.9395 25.0043C26.4403 24.9044 26.9594 24.9553 27.4313 25.1506C27.9031 25.3459 28.3064 25.6767 28.5902 26.1012C28.8739 26.5258 29.0254 27.0249 29.0254 27.5356C29.0256 27.8744 28.9591 28.2101 28.8295 28.5232C28.7 28.8363 28.51 29.1209 28.2705 29.3606C28.0309 29.6003 27.7465 29.7904 27.4334 29.9202C27.1203 30.0499 26.7848 30.1167 26.4459 30.1167H26.4475ZM32.893 30.1167C32.3824 30.1173 31.883 29.9665 31.4581 29.6833C31.0333 29.4 30.7019 28.9972 30.5061 28.5256C30.3102 28.054 30.2586 27.5349 30.3578 27.034C30.4571 26.5331 30.7026 26.0729 31.0635 25.7116C31.4243 25.3503 31.8842 25.1041 32.385 25.0043C32.8858 24.9044 33.4049 24.9553 33.8768 25.1506C34.3486 25.3459 34.7519 25.6767 35.0357 26.1012C35.3194 26.5258 35.4709 27.0249 35.4709 27.5356C35.4711 27.8745 35.4045 28.2102 35.2749 28.5234C35.1453 28.8366 34.9553 29.1212 34.7157 29.3609C34.476 29.6006 34.1915 29.7907 33.8783 29.9204C33.5652 30.0501 33.2295 30.1168 32.8906 30.1167H32.893Z" fill="white"/>
<path d="M12.5524 14.0902C12.6583 14.0195 12.7827 13.9818 12.91 13.9818C13.0373 13.9818 13.1618 14.0195 13.2676 14.0902L14.199 14.712V8.81909H11.6211V14.712L12.5524 14.0902Z" fill="white"/>
<path d="M6.46478 8.81909C6.29378 8.81931 6.12986 8.88739 6.00902 9.00838C5.88819 9.12937 5.82031 9.29337 5.82031 9.46437V22.3716C5.82031 22.5426 5.88819 22.7066 6.00902 22.8276C6.12986 22.9486 6.29378 23.0167 6.46478 23.0169H19.355C19.526 23.0167 19.6899 22.9486 19.8107 22.8276C19.9316 22.7066 19.9994 22.5426 19.9994 22.3716V9.46437C19.9994 9.29337 19.9316 9.12937 19.8107 9.00838C19.6899 8.88739 19.526 8.81931 19.355 8.81909H15.4914V15.918C15.4916 16.0347 15.4601 16.1493 15.4002 16.2496C15.3403 16.3498 15.2543 16.4319 15.1514 16.487C15.0485 16.5422 14.9326 16.5684 14.816 16.5628C14.6994 16.5571 14.5865 16.52 14.4893 16.4552L12.9135 15.3987L11.3377 16.4503C11.2407 16.515 11.1279 16.5522 11.0115 16.5579C10.895 16.5635 10.7792 16.5375 10.6763 16.4825C10.5735 16.4276 10.4875 16.3457 10.4275 16.2457C10.3675 16.1457 10.3358 16.0314 10.3357 15.9147V8.81909H6.46478Z" fill="white"/>
<path d="M36.3276 15.918L32.8907 13.3369V13.9822C32.8907 14.1532 32.8228 14.3172 32.702 14.4382C32.5811 14.5592 32.4172 14.6273 32.2462 14.6275H25.1562V17.2086H32.2462C32.4172 17.2088 32.5811 17.2769 32.702 17.3979C32.8228 17.5189 32.8907 17.6829 32.8907 17.8539V18.4992L36.3276 15.918Z" fill="white"/>
</svg>
