<svg width="40" height="40" viewBox="0 0 40 40" fill="none" xmlns="http://www.w3.org/2000/svg">
<path d="M35.9083 7.77757C35.692 7.1473 35.2582 6.61396 34.6841 6.27254C34.1099 5.93111 33.4328 5.80378 32.7732 5.91322C32.1136 6.02267 31.5144 6.36177 31.0824 6.87014C30.6504 7.37851 30.4135 8.02314 30.4141 8.6892V15.3138H35.0574C35.3071 15.3138 35.5465 15.215 35.723 15.0391C35.8995 14.8633 35.9987 14.6248 35.9987 14.3761V8.68719C35.9986 8.38177 35.9683 8.07709 35.9083 7.77757Z" fill="white"/>
<path d="M31.2934 4H8.70562C7.4581 4.00159 6.26213 4.49593 5.38 5.37461C4.49788 6.25329 4.00159 7.44458 4 8.68722V35.0604C4.00021 35.2299 4.04656 35.3962 4.13412 35.5416C4.22168 35.687 4.34718 35.806 4.49725 35.886C4.64733 35.966 4.81637 36.0039 4.98638 35.9958C5.15639 35.9877 5.32101 35.9338 5.46272 35.8399L7.76429 34.3118L10.0669 35.8399C10.2214 35.9425 10.403 35.9972 10.5888 35.9972C10.7745 35.9972 10.9561 35.9425 11.1107 35.8399L13.4122 34.3118L15.7138 35.8399C15.8684 35.9425 16.05 35.9972 16.2357 35.9972C16.4214 35.9972 16.603 35.9425 16.7576 35.8399L19.0592 34.3118L21.3597 35.8399C21.5143 35.9425 21.6959 35.9972 21.8816 35.9972C22.0674 35.9972 22.249 35.9425 22.4035 35.8399L24.7051 34.3118L27.0057 35.8409C27.1475 35.9344 27.312 35.988 27.4819 35.996C27.6518 36.0039 27.8207 35.9659 27.9706 35.886C28.1206 35.8061 28.246 35.6872 28.3337 35.542C28.4213 35.3969 28.4679 35.2308 28.4684 35.0614V8.68722C28.4699 7.67315 28.8009 6.6868 29.4118 5.87566C30.0228 5.06451 30.881 4.47214 31.858 4.18713C31.6952 4.06526 31.497 3.99957 31.2934 4ZM8.70562 9.68691H23.7015C23.9512 9.68691 24.1906 9.7857 24.3671 9.96154C24.5437 10.1374 24.6428 10.3759 24.6428 10.6246C24.6428 10.8732 24.5437 11.1117 24.3671 11.2876C24.1906 11.4634 23.9512 11.5622 23.7015 11.5622H8.70562C8.45596 11.5622 8.21653 11.4634 8.04 11.2876C7.86347 11.1117 7.76429 10.8732 7.76429 10.6246C7.76429 10.3759 7.86347 10.1374 8.04 9.96154C8.21653 9.7857 8.45596 9.68691 8.70562 9.68691ZM9.82074 22.3186L12.1977 23.5024C12.5632 23.683 12.8707 23.962 13.0852 24.3078C13.2997 24.6536 13.4126 25.0523 13.4112 25.4588V26.2483C13.4115 26.7746 13.2214 27.2834 12.8759 27.6816C12.5304 28.0798 12.0524 28.3408 11.5296 28.4168V28.8381C11.5296 29.0868 11.4304 29.3253 11.2539 29.5011C11.0773 29.6769 10.8379 29.7757 10.5883 29.7757C10.3386 29.7757 10.0992 29.6769 9.92265 29.5011C9.74612 29.3253 9.64694 29.0868 9.64694 28.8381V28.4168C9.12458 28.3411 8.64697 28.0808 8.30133 27.6835C7.95568 27.2861 7.76507 26.7781 7.76429 26.2523C7.76429 26.0036 7.86347 25.7651 8.04 25.5893C8.21653 25.4134 8.45596 25.3147 8.70562 25.3147C8.95527 25.3147 9.1947 25.4134 9.37123 25.5893C9.54777 25.7651 9.64694 26.0036 9.64694 26.2523C9.64721 26.335 9.68031 26.4143 9.73904 26.4728C9.79776 26.5313 9.87733 26.5643 9.96038 26.5645H11.2151C11.2982 26.5643 11.3778 26.5313 11.4365 26.4728C11.4952 26.4143 11.5283 26.335 11.5286 26.2523V25.4628C11.5286 25.4047 11.5124 25.3478 11.4817 25.2985C11.451 25.2491 11.407 25.2093 11.3548 25.1836L8.97887 23.9958C8.61331 23.8151 8.30585 23.5361 8.09136 23.1904C7.87686 22.8446 7.76391 22.4459 7.7653 22.0394V21.2499C7.76607 20.7241 7.95669 20.2161 8.30233 19.8187C8.64797 19.4213 9.12559 19.161 9.64795 19.0854V18.6451C9.64795 18.3964 9.74712 18.1579 9.92365 17.9821C10.1002 17.8062 10.3396 17.7074 10.5893 17.7074C10.8389 17.7074 11.0784 17.8062 11.2549 17.9821C11.4314 18.1579 11.5306 18.3964 11.5306 18.6451V19.0854C12.053 19.161 12.5306 19.4213 12.8762 19.8187C13.2219 20.2161 13.4125 20.7241 13.4132 21.2499C13.4132 21.4985 13.3141 21.737 13.1375 21.9129C12.961 22.0887 12.7216 22.1875 12.4719 22.1875C12.2223 22.1875 11.9828 22.0887 11.8063 21.9129C11.6298 21.737 11.5306 21.4985 11.5306 21.2499C11.5303 21.1671 11.4972 21.0879 11.4385 21.0294C11.3798 20.9709 11.3002 20.9379 11.2172 20.9376H9.96038C9.87733 20.9379 9.79776 20.9709 9.73904 21.0294C9.68031 21.0879 9.64721 21.1671 9.64694 21.2499V22.0394C9.64689 22.0975 9.66313 22.1544 9.69384 22.2037C9.72456 22.253 9.76851 22.2928 9.82074 22.3186ZM8.70662 15.3138C8.45697 15.3138 8.21754 15.215 8.041 15.0392C7.86447 14.8633 7.7653 14.6248 7.7653 14.3761C7.7653 14.1275 7.86447 13.889 8.041 13.7131C8.21754 13.5373 8.45697 13.4385 8.70662 13.4385H23.7015C23.9512 13.4385 24.1906 13.5373 24.3671 13.7131C24.5437 13.889 24.6428 14.1275 24.6428 14.3761C24.6428 14.6248 24.5437 14.8633 24.3671 15.0392C24.1906 15.215 23.9512 15.3138 23.7015 15.3138H8.70662ZM23.7648 28.4358H16.2352C15.9856 28.4358 15.7461 28.337 15.5696 28.1612C15.3931 27.9853 15.2939 27.7468 15.2939 27.4982C15.2939 27.2495 15.3931 27.011 15.5696 26.8351C15.7461 26.6593 15.9856 26.5605 16.2352 26.5605H23.7648C24.0144 26.5605 24.2539 26.6593 24.4304 26.8351C24.6069 27.011 24.7061 27.2495 24.7061 27.4982C24.7061 27.7468 24.6069 27.9853 24.4304 28.1612C24.2539 28.337 24.0144 28.4358 23.7648 28.4358ZM23.7648 24.6862H16.2352C15.9856 24.6862 15.7461 24.5874 15.5696 24.4116C15.3931 24.2358 15.2939 23.9973 15.2939 23.7486C15.2939 23.4999 15.3931 23.2614 15.5696 23.0856C15.7461 22.9097 15.9856 22.8109 16.2352 22.8109H23.7648C24.0144 22.8109 24.2539 22.9097 24.4304 23.0856C24.6069 23.2614 24.7061 23.4999 24.7061 23.7486C24.7061 23.9973 24.6069 24.2358 24.4304 24.4116C24.2539 24.5874 24.0144 24.6862 23.7648 24.6862ZM23.7648 20.9366H16.2352C15.9856 20.9366 15.7461 20.8379 15.5696 20.662C15.3931 20.4862 15.2939 20.2477 15.2939 19.999C15.2939 19.7503 15.3931 19.5118 15.5696 19.336C15.7461 19.1601 15.9856 19.0614 16.2352 19.0614H23.7648C24.0144 19.0614 24.2539 19.1601 24.4304 19.336C24.6069 19.5118 24.7061 19.7503 24.7061 19.999C24.7061 20.2477 24.6069 20.4862 24.4304 20.662C24.2539 20.8379 24.0144 20.9366 23.7648 20.9366Z" fill="white"/>
</svg>
