<svg width="40" height="40" viewBox="0 0 40 40" fill="none" xmlns="http://www.w3.org/2000/svg">
<path d="M9.03958 20.7417C8.71267 20.7417 8.39311 20.8386 8.1213 21.0203C7.84949 21.2019 7.63764 21.46 7.51253 21.762C7.38743 22.0641 7.3547 22.3964 7.41848 22.717C7.48225 23.0376 7.63967 23.3321 7.87083 23.5633C8.10199 23.7945 8.3965 23.9519 8.71712 24.0156C9.03774 24.0794 9.37007 24.0467 9.67209 23.9216C9.97411 23.7965 10.2323 23.5846 10.4139 23.3128C10.5955 23.041 10.6924 22.7215 10.6924 22.3945C10.6924 21.9562 10.5183 21.5358 10.2083 21.2258C9.89835 20.9158 9.47794 20.7417 9.03958 20.7417Z" fill="white"/>
<path d="M34.7209 8.40885C34.7138 7.76541 34.4523 7.15093 33.9937 6.6996C33.535 6.24827 32.9164 5.99677 32.2729 6.00003H5.42883C4.78749 5.99795 4.17153 6.25043 3.71616 6.70205C3.26079 7.15366 3.00322 7.76752 3 8.40885L3 10.1252H34.7209V8.40885Z" fill="white"/>
<path d="M3 11.1204H34.7209V15.4587H3V11.1204Z" fill="white"/>
<path d="M18.7178 27.1714V24.6434C18.7196 24.5188 18.7674 24.3992 18.852 24.3077C18.9367 24.2162 19.0521 24.1591 19.1762 24.1476L20.7125 23.9997C20.8862 23.3694 21.1419 22.7645 21.4728 22.2007L20.502 21.0306C20.4228 20.9352 20.3821 20.8136 20.3879 20.6896C20.3937 20.5657 20.4455 20.4485 20.5333 20.3608L22.3201 18.5774C22.408 18.4899 22.5254 18.4384 22.6493 18.4329C22.7732 18.4274 22.8947 18.4684 22.99 18.5479L24.1591 19.5187C24.7234 19.1861 25.3304 18.9321 25.9634 18.7636L26.1113 17.2482C26.1245 17.127 26.1826 17.0151 26.2743 16.9346C26.3659 16.8541 26.4843 16.8108 26.6062 16.8132H29.1386C29.2608 16.8105 29.3795 16.8537 29.4715 16.9342C29.5634 17.0147 29.6219 17.1267 29.6353 17.2482L29.7832 18.7584C30.4151 18.9312 31.0214 19.1866 31.5865 19.5178L32.7618 18.5461C32.8589 18.4665 32.9821 18.4259 33.1075 18.432C33.2328 18.4381 33.3515 18.4905 33.4404 18.5792L34.7218 19.8606V16.4548H3V25.3759C3.00193 25.6924 3.06637 26.0054 3.18962 26.2969C3.31286 26.5884 3.49249 26.8527 3.71818 27.0746C3.94387 27.2965 4.21117 27.4716 4.50474 27.5899C4.7983 27.7082 5.11235 27.7673 5.42883 27.7638H20.5159L19.1762 27.6516C19.0535 27.6438 18.9382 27.59 18.8532 27.5011C18.7683 27.4121 18.7199 27.2944 18.7178 27.1714ZM14.1463 25.0462C13.5671 25.0454 13.004 24.8551 12.543 24.5044C12.082 24.1536 11.7484 23.6617 11.5931 23.1037C11.4219 23.7213 11.0327 24.2559 10.4975 24.6086C9.96237 24.9612 9.31753 25.108 8.68247 25.0216C8.0474 24.9352 7.46517 24.6216 7.04362 24.1388C6.62207 23.6561 6.38978 23.0369 6.38978 22.396C6.38978 21.7551 6.62207 21.1359 7.04362 20.6531C7.46517 20.1704 8.0474 19.8567 8.68247 19.7704C9.31753 19.684 9.96237 19.8307 10.4975 20.1834C11.0327 20.536 11.4219 21.0707 11.5931 21.6883C11.7249 21.2126 11.9869 20.7831 12.3497 20.4483C12.7124 20.1135 13.1615 19.8867 13.6463 19.7935C14.131 19.7002 14.6322 19.7442 15.0933 19.9206C15.5544 20.0969 15.957 20.3985 16.2559 20.7915C16.5547 21.1844 16.7378 21.653 16.7846 22.1444C16.8314 22.6358 16.74 23.1305 16.5207 23.5728C16.3014 24.015 15.9629 24.3872 15.5433 24.6474C15.1238 24.9076 14.64 25.0454 14.1463 25.0453V25.0462Z" fill="white"/>
<path d="M15.7979 22.3963C15.7979 22.7232 15.701 23.0427 15.5193 23.3145C15.3377 23.5863 15.0796 23.7982 14.7776 23.9233C14.4755 24.0484 14.1432 24.0811 13.8226 24.0174C13.502 23.9536 13.2075 23.7962 12.9763 23.565C12.7451 23.3338 12.5877 23.0393 12.5239 22.7187C12.4602 22.3981 12.4929 22.0658 12.618 21.7637C12.7431 21.4617 12.955 21.2036 13.2268 21.022C13.4986 20.8403 13.8181 20.7434 14.145 20.7434C14.5834 20.7434 15.0038 20.9175 15.3138 21.2275C15.6238 21.5375 15.7979 21.9579 15.7979 22.3963Z" fill="white"/>
<path d="M35.2412 25.026H35.1925C35.146 25.0259 35.0997 25.0192 35.0551 25.006L34.5653 24.959C34.461 24.9482 34.3628 24.9047 34.2846 24.8347C34.2065 24.7647 34.1525 24.6718 34.1303 24.5693C33.9659 23.8082 33.6602 23.0847 33.2291 22.4363C33.1698 22.3472 33.1409 22.2413 33.1465 22.1344C33.1521 22.0276 33.1921 21.9254 33.2604 21.843L34.1704 20.7451L33.0395 19.6064L31.9451 20.5146C31.8639 20.5823 31.7632 20.6225 31.6576 20.6292C31.552 20.6359 31.4471 20.6089 31.3579 20.552C30.7046 20.1252 29.9792 19.8207 29.217 19.6534C29.1136 19.6326 29.0196 19.5791 28.949 19.5007C28.8783 19.4224 28.8347 19.3234 28.8247 19.2184L28.6872 17.8057H27.0596L26.9213 19.2184C26.9108 19.3223 26.867 19.42 26.7964 19.4969C26.7259 19.5739 26.6324 19.626 26.5298 19.6456C25.7677 19.8087 25.043 20.1136 24.3933 20.5442C24.3042 20.6031 24.1985 20.6318 24.0918 20.626C23.9851 20.6202 23.8831 20.5802 23.8009 20.512L22.7039 19.6021L21.5591 20.7451L22.4673 21.8412C22.5351 21.9231 22.5749 22.0246 22.5808 22.1307C22.5867 22.2368 22.5585 22.3421 22.5003 22.431C22.0718 23.0838 21.7644 23.8084 21.593 24.5702C21.5694 24.6731 21.514 24.7659 21.4347 24.8355C21.3554 24.9052 21.2561 24.9481 21.1511 24.9582L19.7148 25.0956V26.7198L21.1511 26.8581C21.2571 26.8679 21.3573 26.9108 21.4376 26.9808C21.5178 27.0507 21.574 27.1441 21.5982 27.2478C21.763 28.0071 22.0683 28.7288 22.4986 29.3756C22.5577 29.4648 22.5866 29.5706 22.581 29.6775C22.5753 29.7843 22.5355 29.8865 22.4673 29.9689L21.5582 31.0659L22.703 32.2081L23.8 31.2982C23.8813 31.2306 23.9821 31.1906 24.0876 31.184C24.1932 31.1775 24.2981 31.2046 24.3872 31.2616C25.0405 31.6888 25.7659 31.9938 26.5281 32.162C26.6312 32.1834 26.7247 32.2371 26.7951 32.3153C26.8655 32.3935 26.9091 32.4922 26.9195 32.597L27.0579 34.0158H28.6855L28.8238 32.597C28.834 32.4921 28.8775 32.3933 28.9479 32.315C29.0184 32.2367 29.1121 32.1831 29.2153 32.162C29.9773 31.999 30.7021 31.6945 31.3518 31.2642C31.4409 31.2053 31.5466 31.1766 31.6533 31.1824C31.76 31.1882 31.862 31.2282 31.9442 31.2964L33.0412 32.2055L34.186 31.0624L33.2769 29.9663C33.2093 29.8844 33.1696 29.7829 33.1636 29.6768C33.1577 29.5707 33.1858 29.4655 33.2439 29.3765C33.6719 28.7237 33.9787 27.9991 34.1495 27.2374C34.1728 27.1346 34.2278 27.0419 34.3068 26.9722C34.3859 26.9026 34.4848 26.8596 34.5897 26.8494L36.0007 26.7119V25.0956L35.2412 25.026ZM27.8643 30.9328C26.8715 30.9314 25.9014 30.6358 25.0766 30.0832C24.2517 29.5306 23.6092 28.7459 23.2303 27.8283C22.8513 26.9107 22.7528 25.9013 22.9474 24.9278C23.1419 23.9542 23.6207 23.0602 24.3232 22.3586C25.0257 21.6571 25.9204 21.1796 26.8942 20.9864C27.868 20.7932 28.8773 20.893 29.7944 21.2733C30.7115 21.6535 31.4953 22.2971 32.0467 23.1227C32.5981 23.9483 32.8924 24.9188 32.8924 25.9116C32.8919 26.5712 32.7613 27.2243 32.5083 27.8334C32.2553 28.4426 31.8847 28.9959 31.4178 29.4618C30.9508 29.9277 30.3967 30.297 29.7869 30.5486C29.1772 30.8003 28.5239 30.9294 27.8643 30.9285V30.9328Z" fill="white"/>
<path d="M31.8962 25.9081C31.8974 25.1103 31.662 24.3302 31.2197 23.6663C30.7773 23.0024 30.148 22.4847 29.4114 22.1785C28.6747 21.8724 27.8638 21.7917 27.0812 21.9466C26.2987 22.1015 25.5797 22.485 25.0152 23.0487C24.4507 23.6124 24.066 24.3308 23.91 25.1131C23.7539 25.8954 23.8334 26.7065 24.1384 27.4436C24.4434 28.1807 24.9602 28.8108 25.6234 29.2541C26.2866 29.6974 27.0664 29.9341 27.8641 29.9341C28.3933 29.9345 28.9173 29.8307 29.4063 29.6286C29.8953 29.4266 30.3397 29.1301 30.7141 28.7563C31.0885 28.3824 31.3857 27.9384 31.5885 27.4497C31.7913 26.961 31.8959 26.4372 31.8962 25.9081Z" fill="white"/>
<path d="M34.7271 21.6665L34.2852 22.1998C34.4522 22.4816 34.5844 22.7739 34.7271 23.0758V21.6665Z" fill="white"/>
</svg>
