<svg width="40" height="40" viewBox="0 0 40 40" fill="none" xmlns="http://www.w3.org/2000/svg">
<path d="M37.8572 12.0019C37.1084 14.2457 31.4102 14.3259 31.4102 14.3259C31.4165 15.0673 31.2558 15.8007 30.9399 16.4715C30.6241 17.1424 30.1612 17.7335 29.5857 18.201V17.5174C29.4372 17.39 29.2906 17.2732 29.1427 17.1645V15.6601L28.9513 15.5358C28.6442 15.3438 28.3219 15.1776 27.9875 15.0387V13.7076L27.7153 13.6076C25.1129 12.6531 22.5446 13.7642 20.0615 14.8398C17.075 16.1336 14.252 17.3559 11.429 15.1474L10.756 14.6198V18.4688C10.0865 18.005 9.53964 17.3856 9.16223 16.6639C8.78482 15.9422 8.58817 15.1397 8.58916 14.3253C8.58916 14.3253 2.89153 14.2451 2.14088 12C2.01907 12.3693 1.97554 12.76 2.01306 13.1471C2.05058 13.5342 2.16832 13.9092 2.35878 14.2483C2.54925 14.5873 2.80826 14.883 3.11931 15.1165C3.43035 15.3499 3.78662 15.516 4.1654 15.6041C4.1654 15.6041 3.93983 16.407 2.96672 15.7651C2.96672 15.7651 2.96672 17.9307 6.71564 17.7685C6.71099 17.9144 6.67481 18.0577 6.60956 18.1883C6.54432 18.3189 6.45156 18.4339 6.33767 18.5253C6.22378 18.6167 6.09145 18.6824 5.94978 18.7178C5.80811 18.7532 5.66045 18.7575 5.51695 18.7304C6.1777 19.4215 7.01828 19.9143 7.94401 20.1534C8.86974 20.3925 9.84385 20.3684 10.7566 20.0838V24.3038L10.9163 24.428C11.229 24.671 11.5616 24.8872 11.9106 25.0743V26.4041L12.143 26.5184C12.4788 26.6814 12.8292 26.8126 13.1894 26.9105V27.4698C18.6577 29.1165 24.123 21.413 29.5901 26.1444V20.1895C30.4626 20.3953 31.3737 20.3692 32.2331 20.1139C33.0924 19.8586 33.87 19.3829 34.4886 18.7341C34.3451 18.7612 34.1975 18.7569 34.0558 18.7215C33.9142 18.6861 33.7819 18.6204 33.6681 18.529C33.5542 18.4376 33.4615 18.3226 33.3964 18.192C33.3312 18.0613 33.2951 17.9181 33.2905 17.7722C37.0394 17.9319 37.0394 15.7688 37.0394 15.7688C36.0638 16.4101 35.8389 15.6072 35.8389 15.6072C36.2176 15.5189 36.5736 15.3526 36.8844 15.1189C37.1951 14.8852 37.4538 14.5892 37.6437 14.25C37.8336 13.9107 37.9507 13.5355 37.9875 13.1484C38.0242 12.7613 37.9799 12.3708 37.8572 12.0019ZM11.9087 16.8525V24.1149C11.8012 24.0459 11.6937 23.9763 11.5874 23.898V16.274C14.5702 18.1233 17.5268 16.8438 20.3908 15.6035C22.7341 14.59 24.9544 13.6299 27.1536 14.2986V14.7584C26.6562 14.6286 26.1445 14.562 25.6305 14.5602C23.7421 14.5602 21.8704 15.368 20.0602 16.1528C18.3278 16.9016 16.5363 17.6771 14.8206 17.6771C14.0195 17.6837 13.2282 17.5012 12.5108 17.1446L11.9087 16.8525ZM21.3863 24.2932C19.8595 24.9444 18.6229 24.1515 18.6223 22.5054C18.6731 21.634 18.9562 20.792 19.4422 20.0668C19.9282 19.3417 20.5995 18.7599 21.3863 18.3818C22.9125 17.7231 24.1485 18.7901 24.1497 20.4324C24.0942 21.2694 23.8061 22.0743 23.3179 22.7564C22.8296 23.4385 22.1607 23.9707 21.3863 24.2932ZM28.3094 16.6357C23.2679 13.9382 18.2265 20.3579 13.1875 18.8404C13.1875 21.2431 13.1875 23.6459 13.1875 26.0487C13.0378 25.9977 12.8886 25.9443 12.742 25.8815V18.1513C13.4076 18.3938 14.111 18.5158 14.8193 18.5117C16.7078 18.5117 18.5794 17.7039 20.3896 16.9172C22.1221 16.1715 23.9136 15.3929 25.6293 15.3929C26.5726 15.3871 27.4995 15.6399 28.3094 16.1236V16.6357ZM21.5982 19.967V20.9824C21.6467 20.965 21.692 20.9463 21.7399 20.9302C22.0392 20.7805 22.3835 20.7479 22.7056 20.8388C22.8721 20.9302 22.9541 21.1769 22.9541 21.5758C22.9772 21.9283 22.8813 22.2784 22.6819 22.5701C22.4226 22.8541 22.0939 23.0659 21.7281 23.1846C21.684 23.202 21.6417 23.2213 21.5976 23.2387V23.6942C21.4534 23.7501 21.3086 23.8116 21.1626 23.8725V23.4176L21.0383 23.4667C20.7522 23.6386 20.4118 23.6961 20.0851 23.6277C19.8987 23.5413 19.8104 23.2946 19.8104 22.882C19.8104 22.8348 19.8104 22.7894 19.8104 22.7409C20.0236 22.6508 20.238 22.5545 20.4511 22.465V22.5365C20.4511 22.7851 20.4896 22.9305 20.5636 22.9715C20.6375 23.0125 20.8053 22.9771 21.0644 22.8671C21.0961 22.8528 21.1266 22.8422 21.1595 22.8298V21.7312C20.8486 21.9151 20.4847 21.9886 20.1267 21.9399C19.9403 21.8635 19.8496 21.61 19.8496 21.1843C19.8289 20.8377 19.9271 20.4944 20.128 20.2112C20.4159 19.9067 20.7726 19.6757 21.1682 19.5376V19.143C21.3118 19.0809 21.4553 19.0187 21.5995 18.9641V19.3586C21.8983 19.189 22.2487 19.1342 22.585 19.2045C22.7615 19.2884 22.8485 19.5345 22.8491 19.9328V20.0235C22.6428 20.0919 22.4352 20.1652 22.2277 20.2429C22.2277 20.2212 22.2277 20.1944 22.2246 20.1714C22.2246 19.8713 22.0494 19.7843 21.6983 19.9229C21.6666 19.9397 21.633 19.9539 21.6001 19.967H21.5982ZM21.1632 20.141C21.1334 20.1565 21.1011 20.1683 21.0725 20.1832C20.9129 20.2282 20.7716 20.3227 20.6692 20.4532C20.5668 20.5836 20.5085 20.7433 20.5027 20.909C20.5027 21.2446 20.6918 21.332 21.07 21.1713C21.0731 21.1713 21.1048 21.157 21.1639 21.1352C21.1651 20.8051 21.1657 20.4736 21.1657 20.141H21.1632ZM21.5982 22.6515L21.6908 22.6154C21.8679 22.5669 22.0241 22.4616 22.1355 22.3156C22.2469 22.1697 22.3072 21.9912 22.3072 21.8076C22.3072 21.6025 22.26 21.482 22.1699 21.4503C21.9713 21.4376 21.7731 21.4806 21.5976 21.5746C21.5988 21.9362 21.5993 22.2954 21.5988 22.6521L21.5982 22.6515Z" fill="white"/>
</svg>
