<svg width="40" height="40" viewBox="0 0 40 40" fill="none" xmlns="http://www.w3.org/2000/svg">
<path d="M11.9998 6H27.9984V10H11.9998V6ZM34.0005 11.9995H6.00041C5.47033 12.001 4.96238 12.2123 4.58755 12.5871C4.21272 12.9619 4.00149 13.4699 4 14V23.9995C4.00149 24.5296 4.21272 25.0376 4.58755 25.4124C4.96238 25.7873 5.47033 25.9985 6.00041 26H11.9998V34H27.9984V26H34.0005C34.5303 25.9983 35.0379 25.787 35.4125 25.4124C35.7871 25.0378 35.9983 24.5302 36 24.0005V14C35.9985 13.4701 35.7874 12.9622 35.4128 12.5874C35.0382 12.2126 34.5305 12.0013 34.0005 11.9995ZM7.99988 18C7.60438 18 7.21777 17.8827 6.88894 17.663C6.56011 17.4432 6.30383 17.1309 6.15252 16.7654C6.00121 16.4 5.96167 15.9979 6.0389 15.61C6.11613 15.2221 6.30665 14.8659 6.58638 14.5863C6.8661 14.3067 7.22246 14.1163 7.61038 14.0392C7.9983 13.9622 8.40036 14.0019 8.7657 14.1534C9.13104 14.3049 9.44325 14.5613 9.66284 14.8903C9.88243 15.2192 9.99954 15.6059 9.99935 16.0014C9.99935 16.5317 9.7887 17.0403 9.41372 17.4153C9.03875 17.7903 8.53018 18.0009 7.99988 18.0009V18ZM25.9989 32.0005H13.9992V22H25.9989V32.0005Z" fill="white"/>
</svg>
