<svg width="40" height="40" viewBox="0 0 40 40" fill="none" xmlns="http://www.w3.org/2000/svg">
<path d="M17.8571 27.5857C17.8571 27.6979 17.8259 27.8079 17.767 27.9034C17.7081 27.9989 17.6238 28.0761 17.5235 28.1264L15.1075 29.3343C15.0154 29.3805 14.913 29.4022 14.8101 29.3976C14.7072 29.393 14.6071 29.3621 14.5195 29.3079C14.4319 29.2537 14.3596 29.1781 14.3095 29.088C14.2593 28.998 14.2331 28.8967 14.2332 28.7937V26.9013L12.418 27.9364V34.9992L19.6658 30.8589V23.7961L17.8571 24.8312V27.5857Z" fill="white"/>
<path d="M31.9375 32.2431C31.9375 32.5145 32.0453 32.7748 32.2372 32.9667C32.4291 33.1586 32.6894 33.2664 32.9608 33.2664C33.2322 33.2664 33.4925 33.1586 33.6844 32.9667C33.8763 32.7748 33.9841 32.5145 33.9841 32.2431V31.2202H31.9375V32.2431Z" fill="white"/>
<path d="M4.28906 30.8599L11.2082 35.0002V27.9374L4.28906 23.7947V30.8599Z" fill="white"/>
<path d="M6.45194 21.6807L4.57422 22.7539L11.8132 26.8941L13.6917 25.8209L6.45194 21.6807Z" fill="white"/>
<path d="M31.9375 30.6066H32.4489V20.1342L31.9375 19.7932V30.6066Z" fill="white"/>
<path d="M31.9375 4.72754V8.09657H35.3065L31.9375 4.72754Z" fill="white"/>
<path d="M19.0542 22.7538L11.8152 18.6135L9.9375 19.6867L17.1764 23.827L19.0542 22.7538Z" fill="white"/>
<path d="M15.4354 25.7737V27.8163L16.6434 27.2123V24.9157L8.71602 20.3857L7.66797 20.984L15.131 25.2485C15.2235 25.3015 15.3004 25.3779 15.3539 25.4702C15.4073 25.5624 15.4355 25.6671 15.4354 25.7737Z" fill="white"/>
<path d="M31.4338 9.1194C31.2982 9.1194 31.1681 9.06552 31.0722 8.96961C30.9763 8.87369 30.9224 8.7436 30.9224 8.60796V4.00416H19.8379C19.8379 4.00416 18.7679 3.86453 18.7517 5.2024C18.7355 6.54027 18.6445 21.4663 18.6445 21.4663L20.4305 22.4884C20.5089 22.533 20.5742 22.5976 20.6195 22.6756C20.6648 22.7536 20.6887 22.8422 20.6887 22.9324V27.537H30.9175V18.8401C30.9175 18.7788 30.9285 18.718 30.95 18.6607L32.4851 14.5683C32.5219 14.4708 32.5874 14.3869 32.673 14.3276C32.7587 14.2684 32.8604 14.2366 32.9645 14.2366C33.0687 14.2366 33.1703 14.2684 33.256 14.3276C33.3416 14.3869 33.4072 14.4708 33.4439 14.5683L34.979 18.6607C35.0005 18.718 35.0115 18.7788 35.0115 18.8401V27.537C35.0115 27.537 36.0409 27.7643 36.0409 26.5693C36.0409 25.3744 36.0352 9.1194 36.0352 9.1194H31.4338ZM19.6674 10.1431H20.6903V11.166H19.6674V10.1431ZM29.8963 17.3049H19.6674V16.282H29.8963V17.3049ZM29.8963 15.2583H19.6674V14.2355H29.8963V15.2583ZM32.9657 13.2118H19.6674V12.1889H32.969L32.9657 13.2118ZM35.0123 13.2118H33.9894V12.1889H35.0123V13.2118ZM35.0123 11.1652H21.714V10.1423H35.0156L35.0123 11.1652Z" fill="white"/>
<path d="M33.8735 18.6395L32.9602 16.2041L32.0469 18.6395L32.9602 19.2484L33.8735 18.6395Z" fill="white"/>
<path d="M33.4766 30.6066H33.988V19.7957L33.4766 20.1366V30.6066Z" fill="white"/>
</svg>
