<svg width="40" height="40" viewBox="0 0 40 40" fill="none" xmlns="http://www.w3.org/2000/svg">
<path d="M33.5046 25.0024C33.5048 24.6723 33.5926 24.3482 33.7589 24.0631C33.8085 23.9805 33.8626 23.9007 33.921 23.8242C35.3056 21.7681 36.0467 19.3463 36.0498 16.8674C36.0186 15.143 35.6474 13.4417 34.9573 11.8611C34.2672 10.2805 33.2719 8.85165 32.0285 7.6565C30.785 6.46135 29.3179 5.52341 27.7112 4.89647C26.1045 4.26952 24.3898 3.96591 22.6655 4.00304C19.6401 3.961 16.6909 4.95267 14.3055 6.81411C11.9201 8.67554 10.2414 11.2953 9.5468 14.2402C9.35779 15.1056 9.26222 15.9888 9.26172 16.8746C9.26747 18.5959 9.61322 20.299 10.2791 21.8863C10.945 23.4735 11.9179 24.9135 13.142 26.1237C14.366 27.3338 15.8171 28.2902 17.4118 28.9379C19.0066 29.5856 20.7136 29.9119 22.4348 29.898C23.6658 29.8423 24.8861 29.6434 26.0711 29.3053C26.9417 29.0663 27.8041 28.7505 28.0276 28.6664C28.2571 28.5798 28.5002 28.5353 28.7455 28.5351C29.0126 28.534 29.2772 28.5863 29.5238 28.6889L33.8912 30.2374C33.987 30.2779 34.0883 30.3038 34.1917 30.3143C34.3549 30.3143 34.5114 30.2495 34.6268 30.1341C34.7421 30.0187 34.807 29.8622 34.807 29.699C34.8012 29.6295 34.7882 29.5607 34.768 29.4939L33.5046 25.0024Z" fill="white"/>
<path d="M24.8445 30.5379C24.5677 30.6148 24.2129 30.6999 23.8273 30.784C22.9669 30.9806 22.0901 31.0966 21.2083 31.1306C19.4864 31.1456 17.7785 30.8202 16.1828 30.173C14.5871 29.5257 13.1351 28.5695 11.9101 27.3593C10.6852 26.149 9.71157 24.7086 9.04517 23.1208C8.37876 21.5331 8.03274 19.8292 8.027 18.1073C8.03437 17.5559 8.07305 17.0054 8.14287 16.4583C8.18902 16.1271 8.24542 15.7959 8.32028 15.4718C8.39719 15.1252 8.48948 14.7786 8.58997 14.4392L7.9747 14.9858C6.73501 16.0554 5.73884 17.3782 5.05324 18.8651C4.36763 20.352 4.0085 21.9685 4.00001 23.6058C3.9969 25.8545 4.66261 28.0533 5.91249 29.9226C6.0899 30.1923 6.18937 30.4005 6.15861 30.5379C6.12784 30.6753 5.24184 35.3135 5.24184 35.3135C5.21974 35.4216 5.22711 35.5337 5.2632 35.6379C5.29928 35.7422 5.36274 35.8349 5.44694 35.9062C5.55828 35.9957 5.69683 36.0445 5.83969 36.0446C5.9166 36.045 5.99274 36.0293 6.06324 35.9985L10.3856 34.2993C10.5253 34.2438 10.6741 34.2149 10.8245 34.2142C10.9915 34.2147 11.1566 34.2496 11.3095 34.3167C12.7978 34.9107 14.3833 35.2236 15.9856 35.2397C17.7434 35.2467 19.4817 34.8706 21.0794 34.1376C22.6772 33.4046 24.096 32.3323 25.2373 30.9953C25.2373 30.9953 25.4834 30.6558 25.7685 30.2559C25.4865 30.3554 25.1635 30.4559 24.8445 30.5379Z" fill="white"/>
</svg>
