<svg width="40" height="40" viewBox="0 0 40 40" fill="none" xmlns="http://www.w3.org/2000/svg">
<path d="M34.6611 13.7281H13.0253C12.6531 13.7842 12.3135 13.972 12.068 14.2572C11.8225 14.5425 11.6875 14.9064 11.6875 15.2828C11.6875 15.6591 11.8225 16.023 12.068 16.3083C12.3135 16.5935 12.6531 16.7813 13.0253 16.8374H23.0348V30.1361C23.0346 30.4328 22.9166 30.7173 22.7068 30.9271C22.497 31.1369 22.2125 31.2549 21.9158 31.2551C21.2992 31.2551 20.4076 32.8711 21.9158 32.8711C22.2741 32.8717 22.6289 32.8017 22.9601 32.6651C23.2913 32.5285 23.5923 32.3279 23.8459 32.0748C24.3574 32.5851 25.0505 32.8716 25.773 32.8711C27.2812 32.8711 26.3903 31.2551 25.773 31.2551C25.4763 31.2549 25.1918 31.1369 24.9819 30.9271C24.7721 30.7173 24.6542 30.4328 24.654 30.1361V16.8367H34.6635C35.0356 16.7805 35.3753 16.5928 35.6208 16.3075C35.8663 16.0222 36.0013 15.6583 36.0013 15.282C36.0013 14.9056 35.8663 14.5417 35.6208 14.2565C35.3753 13.9712 35.0356 13.7834 34.6635 13.7273L34.6611 13.7281Z" fill="white"/>
<path d="M15.8729 21.2457C15.8729 20.8264 15.7064 20.4243 15.4099 20.1278C15.1134 19.8313 14.7113 19.6648 14.2921 19.6648H7.08091L8 13L5.61101 6.71705C5.58687 6.50409 5.47912 6.30945 5.31147 6.17595C5.14381 6.04244 4.92999 5.981 4.71704 6.00515C4.50409 6.02929 4.30945 6.13704 4.17595 6.3047C4.04244 6.47235 3.981 6.68617 4.00515 6.89912L5.45863 19.7C5.10141 19.7772 4.78199 19.9758 4.55472 20.262C4.32745 20.5483 4.20637 20.9044 4.21208 21.2698C4.21779 21.6352 4.34994 21.9874 4.58605 22.2664C4.82215 22.5454 5.14762 22.7339 5.50708 22.7999L4.46229 32.121C4.44959 32.2269 4.45797 32.3342 4.48694 32.4368C4.51591 32.5394 4.56489 32.6353 4.63108 32.7188C4.69726 32.8024 4.77934 32.8721 4.87257 32.9238C4.9658 32.9755 5.06834 33.0083 5.17429 33.0202C5.28024 33.0321 5.3875 33.0229 5.48989 32.9932C5.59228 32.9635 5.68777 32.9138 5.77086 32.847C5.85395 32.7802 5.923 32.6976 5.97402 32.604C6.02505 32.5103 6.05704 32.4076 6.06816 32.3015L7.13092 22.8265H12.9542L14.017 32.3015C14.0281 32.4076 14.0601 32.5103 14.1111 32.604C14.1622 32.6976 14.2312 32.7802 14.3143 32.847C14.3974 32.9138 14.4929 32.9635 14.5953 32.9932C14.6977 33.0229 14.8049 33.0321 14.9109 33.0202C15.0168 33.0083 15.1194 32.9755 15.2126 32.9238C15.3058 32.8721 15.3879 32.8024 15.4541 32.7188C15.5203 32.6353 15.5693 32.5394 15.5982 32.4368C15.6272 32.3342 15.6356 32.2269 15.6229 32.121L14.5765 22.7999C14.9403 22.7334 15.2692 22.5414 15.5061 22.2575C15.7429 21.9735 15.8728 21.6155 15.8729 21.2457Z" fill="white"/>
</svg>
