<svg width="40" height="40" viewBox="0 0 40 40" fill="none" xmlns="http://www.w3.org/2000/svg">
<path d="M22.9663 36C20.9412 36 18.4677 35.9699 16.4808 35.9457C15.0224 35.9281 13.7651 35.9127 13.0091 35.9127C12.7993 35.9124 12.5915 35.8707 12.3978 35.7901C12.204 35.7095 12.028 35.5915 11.8799 35.4428C11.7318 35.2941 11.6144 35.1177 11.5345 34.9237C11.4546 34.7296 11.4137 34.5217 11.4142 34.3118C11.4142 30.5596 11.4117 25.7105 11.4117 22.613C11.4121 22.0696 11.4112 20.9079 11.4106 19.8902C11.4103 19.3378 11.8571 18.8902 12.4095 18.8902C13.5152 18.8902 15.1391 18.8902 15.1391 18.8902V15.6996C15.1411 14.9387 15.3239 14.1891 15.6725 13.5127C16.0212 12.8363 16.5257 12.2526 17.1444 11.8095C17.2347 11.745 17.343 11.7103 17.4541 11.7103C17.5652 11.7103 17.6735 11.745 17.7638 11.8095C18.2079 12.1248 18.7171 12.3362 19.2538 12.4283L17.9547 13.7274C17.8704 13.8112 17.8166 13.9208 17.8021 14.0387C17.7876 14.1567 17.8132 14.2761 17.8747 14.3777L19.4696 17.0369C19.5169 17.1155 19.5838 17.1805 19.6636 17.2256C19.7435 17.2707 19.8337 17.2945 19.9254 17.2945C20.0171 17.2945 20.1073 17.2707 20.1872 17.2256C20.267 17.1805 20.3339 17.1155 20.3812 17.0369L21.9769 14.3777C22.0376 14.2755 22.0622 14.1558 22.0468 14.0378C22.0314 13.9199 21.9767 13.8106 21.8917 13.7274L20.5926 12.4283C21.1293 12.3361 21.6384 12.1246 22.0826 11.8095C22.1729 11.745 22.2812 11.7103 22.3923 11.7103C22.5034 11.7103 22.6117 11.745 22.702 11.8095C23.3206 12.2526 23.825 12.8364 24.1735 13.5128C24.5221 14.1892 24.7048 14.9387 24.7065 15.6996V18.891H27.7867C28.339 18.891 28.7867 19.3388 28.7867 19.8911C28.7867 19.9288 28.7867 19.9653 28.7867 20V34.3118C28.7867 35.3857 28.1313 35.9075 26.7822 35.9075C26.2149 35.9677 24.9649 36 22.9663 36ZM13.6873 24.158C13.4927 24.158 13.306 24.2353 13.1683 24.373C13.0307 24.5106 12.9533 24.6973 12.9533 24.892V33.5463C12.9533 33.741 13.0307 33.9277 13.1683 34.0653C13.306 34.203 13.4927 34.2803 13.6873 34.2803H26.3903C26.585 34.2803 26.7716 34.203 26.9093 34.0653C27.0469 33.9277 27.1243 33.741 27.1243 33.5463V24.892C27.1243 24.6973 27.0469 24.5106 26.9093 24.373C26.7716 24.2353 26.585 24.158 26.3903 24.158H13.6873ZM13.8006 20.5C13.3635 20.5 13.0091 20.8544 13.0091 21.2915C13.0091 21.7287 13.3635 22.083 13.8006 22.083H26.3327C26.7699 22.083 27.1243 21.7287 27.1243 21.2915C27.1243 20.8544 26.7699 20.5 26.3327 20.5H13.8006ZM19.9232 15.7297L18.9977 14.1884L19.9239 13.2628L20.8495 14.1862L19.9239 15.7275L19.9232 15.7297ZM19.9232 11.4455C19.1869 11.4455 18.4672 11.2271 17.855 10.8181C17.2428 10.409 16.7656 9.82761 16.4838 9.14737C16.2021 8.46713 16.1283 7.71861 16.272 6.99647C16.4156 6.27433 16.7702 5.611 17.2908 5.09037C17.8115 4.56973 18.4748 4.21518 19.1969 4.07153C19.9191 3.92789 20.6676 4.00161 21.3478 4.28338C22.0281 4.56514 22.6095 5.0423 23.0185 5.6545C23.4276 6.2667 23.6459 6.98645 23.6459 7.72274C23.6446 8.70959 23.2519 9.65562 22.554 10.3534C21.8562 11.0511 20.91 11.4443 19.9232 11.4455Z" fill="white"/>
</svg>
