<svg width="40" height="40" viewBox="0 0 40 40" fill="none" xmlns="http://www.w3.org/2000/svg">
<path d="M38.1355 29.7876L36.819 21.8722C36.7725 21.5938 36.6174 21.3453 36.3878 21.1812C36.1582 21.0172 35.8728 20.951 35.5944 20.9972L34.1314 21.2409C34.2486 20.497 34.3076 19.7451 34.308 18.9921C34.3132 17.1043 33.9439 15.2342 33.2214 13.4901C32.4989 11.746 31.4377 10.1625 30.0991 8.83136C28.7871 7.46724 27.2072 6.38916 25.4587 5.66485C23.7101 4.94053 21.8307 4.58564 19.9384 4.62246C19.8245 4.62246 19.7115 4.62246 19.5985 4.62688C18.2111 4.21974 16.7736 4.00873 15.3278 4C13.4638 4.01628 11.622 4.4056 9.91092 5.14499C8.19982 5.88438 6.65409 6.95888 5.36485 8.30514L3.68288 7.10701C3.5116 6.98492 3.30801 6.91629 3.09777 6.90978C2.88754 6.90327 2.68008 6.95917 2.50158 7.07042C2.32308 7.18168 2.18152 7.34331 2.09478 7.53493C2.00803 7.72654 1.97997 7.93955 2.01415 8.14709L3.33854 16.1305C3.37888 16.3794 3.50666 16.6057 3.69892 16.7689C3.89118 16.932 4.13531 17.0212 4.38745 17.0205C4.4466 17.0206 4.50566 17.0159 4.56404 17.0064L5.73744 16.8112C5.62771 17.5345 5.57251 18.2649 5.57234 18.9965C5.57141 20.8833 5.94237 22.7517 6.66401 24.4951C7.38566 26.2384 8.44383 27.8224 9.77804 29.1566C11.1123 30.4907 12.6963 31.5488 14.4397 32.2703C16.1831 32.9918 18.0516 33.3627 19.9384 33.3616C20.1203 33.3616 20.3013 33.3572 20.4823 33.3502C21.8947 33.7722 23.3601 33.991 24.8342 34C26.6981 33.9835 28.5398 33.594 30.2507 32.8544C31.9616 32.1149 33.5072 31.0403 34.7962 29.694L36.4738 30.8965C36.6493 31.0225 36.8591 31.0918 37.0751 31.0952H37.1245C37.2824 31.0907 37.4372 31.0511 37.5779 30.9794C37.7186 30.9077 37.8416 30.8057 37.938 30.6806C38.0344 30.5556 38.1018 30.4106 38.1353 30.2564C38.1689 30.1021 38.1677 29.9422 38.1319 29.7885L38.1355 29.7876ZM19.9384 31.232C18.114 31.2325 16.3126 30.825 14.6662 30.0392C13.0197 29.2534 11.5698 28.1093 10.4227 26.6906C9.27564 25.272 8.46038 23.6147 8.03667 21.8402C7.61295 20.0658 7.5915 18.219 7.97389 16.4351L12.5501 15.674C12.7577 15.6393 12.9503 15.5437 13.1036 15.3994C13.2568 15.2552 13.3639 15.0687 13.4111 14.8636C13.4584 14.6585 13.4438 14.444 13.3691 14.2472C13.2944 14.0504 13.163 13.8802 12.9916 13.7581L11.005 12.3366C11.56 11.0437 12.4048 9.89582 13.4742 8.98154C14.5436 8.06726 15.8088 7.41109 17.1722 7.06375C18.0795 6.85544 19.0075 6.75059 19.9384 6.75119C21.7684 6.75069 23.5752 7.16077 25.2257 7.95125C26.8762 8.74172 28.3284 9.89243 29.4751 11.3186C30.6219 12.7448 31.434 14.4101 31.8517 16.1918C32.2695 17.9735 32.2821 19.8262 31.8888 21.6135L27.611 22.3251C27.4037 22.3602 27.2114 22.456 27.0584 22.6003C26.9054 22.7446 26.7986 22.9309 26.7513 23.1358C26.7041 23.3408 26.7186 23.5551 26.7931 23.7518C26.8675 23.9485 26.9985 24.1187 27.1695 24.241L29.1588 25.6625C28.3754 27.4462 27.0619 28.9453 25.3966 29.9562C23.7011 30.8 21.8323 31.2371 19.9384 31.2329V31.232Z" fill="white"/>
<path d="M20.569 17.9414C18.8032 17.4055 18.4182 17.13 18.4182 16.3866C18.4182 15.6431 19.6243 15.4312 20.3368 15.4312C21.025 15.4336 21.7009 15.6139 22.2987 15.9548C22.3907 16.0143 22.5026 16.0347 22.6097 16.0117C22.7169 15.9887 22.8104 15.9241 22.8699 15.8321L23.7679 14.4432C23.8271 14.3511 23.8474 14.2393 23.8244 14.1323C23.8014 14.0252 23.737 13.9316 23.6451 13.872C22.9032 13.4162 22.0729 13.1233 21.2092 13.0129V12.1574C21.2092 12.0478 21.1656 11.9427 21.0881 11.8652C21.0106 11.7877 20.9055 11.7441 20.7959 11.7441H19.1422C19.0326 11.7441 18.9275 11.7877 18.85 11.8652C18.7726 11.9427 18.729 12.0478 18.729 12.1574V13.148C17.9611 13.2819 17.2633 13.6778 16.7545 14.2683C16.2456 14.8587 15.9571 15.6073 15.9381 16.3866C15.9381 19.1307 18.2929 19.8432 19.8503 20.3156C21.5279 20.8233 21.8643 21.0528 21.859 21.685C21.859 22.3834 20.7068 22.5679 20.0251 22.5679C19.1749 22.5625 18.3582 22.2354 17.7393 21.6523C17.7019 21.6129 17.6572 21.5812 17.6076 21.559C17.5581 21.5369 17.5046 21.5247 17.4503 21.5232C17.396 21.5217 17.342 21.531 17.2913 21.5504C17.2406 21.5698 17.1942 21.5991 17.1548 21.6364L15.9531 22.7728C15.8736 22.8482 15.8274 22.9522 15.8244 23.0617C15.8214 23.1713 15.862 23.2775 15.9372 23.3572C16.6989 24.1299 17.6684 24.6651 18.7281 24.8979V25.8418C18.7281 25.9514 18.7717 26.0565 18.8492 26.134C18.9267 26.2115 19.0318 26.255 19.1413 26.255H20.7951C20.9047 26.255 21.0097 26.2115 21.0872 26.134C21.1647 26.0565 21.2083 25.9514 21.2083 25.8418V24.943C23.1225 24.5854 24.3391 23.3378 24.3382 21.6938C24.3612 19.0901 22.0788 18.3943 20.569 17.9414Z" fill="white"/>
</svg>
