<svg width="40" height="40" viewBox="0 0 40 40" fill="none" xmlns="http://www.w3.org/2000/svg">
<path d="M11.3867 9.54224H12.618V10.7735H11.3867V9.54224Z" fill="white"/>
<path d="M26.8449 17.5424C26.7079 17.542 26.5738 17.5823 26.4598 17.6584C26.3458 17.7344 26.257 17.8426 26.2046 17.9693C26.1523 18.096 26.1389 18.2353 26.166 18.3697C26.1931 18.504 26.2596 18.6272 26.357 18.7237L27.82 20.1849L26.9494 21.0554L25.4855 19.5915L24.2542 18.3602C24.1248 18.2305 23.9492 18.1576 23.766 18.1574C23.5828 18.1573 23.407 18.2299 23.2774 18.3593C23.1477 18.4887 23.0748 18.6643 23.0746 18.8475C23.0744 19.0307 23.1471 19.2065 23.2765 19.3361L25.9717 22.0313L25.1011 22.9019L22.4059 20.2067C22.3095 20.1093 22.1863 20.0428 22.0519 20.0157C21.9176 19.9886 21.7782 20.002 21.6516 20.0543C21.5249 20.1067 21.4167 20.1955 21.3406 20.3095C21.2646 20.4235 21.2242 20.5576 21.2246 20.6946C21.2253 20.8775 21.2977 21.0527 21.4264 21.1826L24.1216 23.8778L23.251 24.7484L20.5631 22.0522L15.6434 17.1289C15.5791 17.0646 15.5027 17.0136 15.4187 16.9788C15.3346 16.9439 15.2446 16.926 15.1536 16.926C15.0626 16.926 14.9726 16.9439 14.8885 16.9788C14.8045 17.0136 14.7281 17.0646 14.6638 17.1289C14.5995 17.1932 14.5485 17.2696 14.5137 17.3536C14.4789 17.4377 14.4609 17.5277 14.4609 17.6187C14.4609 17.7097 14.4789 17.7997 14.5137 17.8838C14.5485 17.9678 14.5995 18.0442 14.6638 18.1085L22.9239 26.3686L23.5127 26.9574L22.6404 27.8243L22.0506 27.2355C21.4501 26.6354 20.6604 26.2618 19.8156 26.178C18.9708 26.0942 18.123 26.3053 17.4163 26.7757L17.1882 26.9292C17.0832 26.999 17.0034 27.1008 16.9608 27.2194C16.9181 27.3381 16.9147 27.4673 16.9512 27.588C16.9877 27.7087 17.0621 27.8144 17.1634 27.8896C17.2646 27.9647 17.3874 28.0052 17.5135 28.0051H17.6044C18.8993 28.0065 20.153 28.4608 21.1483 29.2891L22.3987 30.3305C23.013 30.8417 23.7574 31.1721 24.5487 31.2846L27.1693 31.659L33.4348 25.389L32.727 23.6325C32.5112 23.0903 32.1868 22.598 31.7737 22.1858L27.3329 17.745C27.2689 17.6811 27.193 17.6305 27.1094 17.596C27.0258 17.5616 26.9363 17.544 26.8458 17.5442L26.8449 17.5424Z" fill="white"/>
<path d="M8.92578 9.54224V15.6969H15.0804V9.54224H13.8491V12.0039H10.1571V9.54224H8.92578Z" fill="white"/>
<path d="M4 32.0289C4 33.0439 5.34488 32.9003 5.34488 32.9003L5.23038 5.84921H26.155V16.4492C26.5471 16.2891 26.9831 16.2724 27.3863 16.4019V5.84921C27.3864 5.60625 27.3387 5.36566 27.2457 5.14119C27.1528 4.91672 27.0165 4.71278 26.8446 4.54103C26.6728 4.36928 26.4688 4.23309 26.2443 4.14026C26.0198 4.04742 25.7792 3.99976 25.5362 4H5.84648C5.35644 4.00048 4.88665 4.19555 4.54039 4.54232C4.19413 4.88908 3.99976 5.35916 4 5.84921V32.0289Z" fill="white"/>
<path d="M34.2137 26.3557L28.3789 32.1905L36.0002 36.764V27.7006L34.2137 26.3557Z" fill="white"/>
<path d="M19.4554 24.9284C19.5589 24.9284 19.6607 24.9365 19.7625 24.9429L18.5348 23.7152L15.6942 23.6971V20.8746L14.2085 19.3889H7.69223V18.1585H13.3171C13.1875 17.7553 13.2042 17.3193 13.3643 16.9272H7.69223V8.31186H16.3085V16.0931C16.3795 16.1438 16.4469 16.1994 16.5103 16.2593L20.1687 19.9178C20.3149 19.5894 20.5505 19.3087 20.8485 19.1077C21.1465 18.9067 21.4951 18.7935 21.8543 18.781C21.8652 18.4298 21.9727 18.0885 22.1652 17.7946C22.3576 17.5006 22.6275 17.2656 22.945 17.1152C23.2625 16.9648 23.6154 16.9051 23.9647 16.9425C24.3141 16.9798 24.6463 17.1129 24.9248 17.3271V7.08057H6.46094V25.5435H9.23793V21.2354H13.2308V23.6971H10.86C10.86 23.7152 10.8681 23.7325 10.869 23.7516L10.86 25.5435H17.1C17.8197 25.1431 18.629 24.9314 19.4526 24.9284H19.4554ZM23.6953 12.0048H22.4622V10.7735H23.6935L23.6953 12.0048ZM17.5407 8.31186H23.6953V9.54314H17.5389L17.5407 8.31186ZM17.5407 10.7735H21.2337V12.0048H17.5389L17.5407 10.7735ZM17.5407 13.2352H23.6953V14.4665H17.5389L17.5407 13.2352ZM17.5407 15.6969H23.6953V16.9282H17.5389L17.5407 15.6969Z" fill="white"/>
<path d="M24.3768 32.5051C23.3599 32.3599 22.4034 31.9345 21.6144 31.2765L20.364 30.2352C19.7337 29.7153 18.9685 29.3856 18.1577 29.2847V31.0821H13.2371V28.6204H16.164C15.9369 28.3772 15.7844 28.0739 15.7248 27.7465C15.6652 27.4192 15.7009 27.0816 15.8278 26.7739H6.57812V30.2352C6.59993 30.5232 6.57812 32.9285 6.57812 32.9285H27.2193L27.1802 32.9049L24.3768 32.5051Z" fill="white"/>
</svg>
