<svg width="40" height="40" viewBox="0 0 40 40" fill="none" xmlns="http://www.w3.org/2000/svg">
<path d="M14.5675 35.9753C16.7535 35.9753 18.5256 34.2032 18.5256 32.0172C18.5256 29.8312 16.7535 28.0591 14.5675 28.0591C12.3815 28.0591 10.6094 29.8312 10.6094 32.0172C10.6094 34.2032 12.3815 35.9753 14.5675 35.9753Z" fill="white"/>
<path d="M27.2487 28.0246C26.4286 27.9438 25.6036 28.1184 24.8865 28.5246C24.1695 28.9307 23.5956 29.5485 23.2432 30.2935C22.8909 31.0384 22.7773 31.874 22.9182 32.686C23.0591 33.4979 23.4474 34.2464 24.0301 34.8291C24.6128 35.4118 25.3614 35.8002 26.1733 35.9411C26.9852 36.0819 27.8209 35.9684 28.5658 35.6161C29.3107 35.2637 29.9286 34.6898 30.3347 33.9727C30.7409 33.2557 30.9155 32.4307 30.8346 31.6106C30.7439 30.6904 30.337 29.83 29.6831 29.1761C29.0293 28.5223 28.1689 28.1153 27.2487 28.0246Z" fill="white"/>
<path d="M35.3982 12.9552C35.3017 12.8107 35.1704 12.6927 35.0164 12.6121C34.8624 12.5315 34.6907 12.4909 34.5169 12.4939H30.1328V12.4176C30.1328 10.1853 29.2461 8.04455 27.6677 6.46614C26.0893 4.88772 23.9485 4.00098 21.7163 4.00098C19.484 4.00098 17.3432 4.88772 15.7648 6.46614C14.1864 8.04455 13.2997 10.1853 13.2997 12.4176V12.492H10.0329L8.91854 7.42147C8.85794 7.17119 8.71527 6.94842 8.5133 6.78868C8.31132 6.62895 8.06167 6.54145 7.80416 6.54015H3V8.84333H6.88172L10.456 25.2535C10.5016 25.5147 10.6389 25.751 10.8431 25.9201C11.0474 26.0892 11.3052 26.1799 11.5703 26.1759H31.6703C31.9278 26.1746 32.1774 26.0871 32.3794 25.9274C32.5814 25.7676 32.724 25.5449 32.7846 25.2946L35.6244 13.9187C35.6665 13.7517 35.6679 13.5771 35.6286 13.4094C35.5892 13.2418 35.5102 13.086 35.3982 12.9552ZM21.7163 18.528C20.5077 18.528 19.3263 18.1697 18.3215 17.4982C17.3166 16.8268 16.5334 15.8725 16.0709 14.7559C15.6084 13.6394 15.4874 12.4108 15.7232 11.2255C15.959 10.0402 16.5409 8.95137 17.3955 8.09681C18.2501 7.24224 19.3388 6.66028 20.5242 6.4245C21.7095 6.18873 22.9381 6.30974 24.0546 6.77222C25.1712 7.23471 26.1255 8.01791 26.7969 9.02277C27.4684 10.0276 27.8267 11.209 27.8267 12.4176C27.8267 13.22 27.6687 14.0146 27.3616 14.7559C27.0545 15.4973 26.6044 16.1709 26.037 16.7383C25.4696 17.3057 24.796 17.7558 24.0546 18.0629C23.3133 18.37 22.5187 18.528 21.7163 18.528Z" fill="white"/>
<path d="M20.7945 12.5351L18.6803 10.3807L17.0273 11.9945L19.9484 14.9538C20.1613 15.1709 20.4513 15.2952 20.7553 15.2995C20.9038 15.3067 21.0521 15.283 21.1909 15.2301C21.3298 15.1772 21.4562 15.0961 21.5622 14.992L26.4046 10.4189L24.829 8.72778L20.7945 12.5351Z" fill="white"/>
</svg>
