<svg width="40" height="40" viewBox="0 0 40 40" fill="none" xmlns="http://www.w3.org/2000/svg">
<path d="M27.6673 35H12.7557L15.9815 30.7904H24.4437L27.6683 34.9979L27.6673 35ZM35.1953 28.9203H4.80572C4.06185 28.9194 3.34866 28.6235 2.82266 28.0973C2.29666 27.5711 2.00081 26.8576 2 26.1135V8.80676C2.00081 8.06262 2.29666 7.34916 2.82266 6.82297C3.34866 6.29677 4.06185 6.00081 4.80572 6H35.1953C35.9391 6.00081 36.6521 6.29681 37.178 6.82303C37.7038 7.34925 37.9995 8.06271 38 8.80676V26.1114C37.9995 26.8557 37.7036 27.5693 37.1776 28.0955C36.6515 28.6218 35.9382 28.9177 35.1943 28.9182L35.1953 28.9203ZM20.4189 14.4715C20.1433 14.4586 19.8683 14.5059 19.6129 14.6101C19.3574 14.7144 19.1277 14.873 18.9398 15.0751C18.5429 15.581 18.3487 16.2167 18.3948 16.8581V18.0878C18.3485 18.7302 18.5444 19.3667 18.9439 19.8718C19.1332 20.0735 19.3638 20.2318 19.62 20.3358C19.8762 20.4398 20.1519 20.4871 20.4281 20.4744C20.7032 20.4864 20.9777 20.4389 21.2327 20.3349C21.4876 20.2308 21.7171 20.0729 21.9053 19.8718C22.3041 19.3664 22.4996 18.7301 22.4534 18.0878V16.8581C22.4989 16.2165 22.3027 15.5811 21.9033 15.0771C21.7148 14.8736 21.4843 14.7136 21.2278 14.6081C20.9713 14.5027 20.6949 14.4543 20.4179 14.4664L20.4189 14.4715ZM15.6741 14.4715C15.3984 14.4586 15.1232 14.5059 14.8676 14.6101C14.612 14.7143 14.3821 14.873 14.194 15.0751C13.7976 15.5812 13.6037 16.2168 13.65 16.8581V18.0878C13.6038 18.7301 13.7992 19.3664 14.198 19.8718C14.3875 20.0734 14.6185 20.2316 14.8748 20.3356C15.1312 20.4396 15.407 20.487 15.6834 20.4744C15.9583 20.4866 16.2326 20.439 16.4874 20.335C16.7422 20.231 16.9714 20.073 17.1594 19.8718C17.5589 19.3667 17.7548 18.7302 17.7085 18.0878V16.8581C17.754 16.2165 17.5577 15.5811 17.1584 15.0771C16.9698 14.8738 16.7394 14.7139 16.4829 14.6084C16.2264 14.503 15.9501 14.4545 15.6731 14.4664L15.6741 14.4715ZM24.6731 15.9133V20.3842H26.0222V14.5463L23.3732 14.9562V15.9092L24.6731 15.9133ZM20.4271 19.4281C20.3232 19.4321 20.2202 19.4069 20.1297 19.3555C20.0392 19.3041 19.9648 19.2285 19.915 19.1371C19.7781 18.8329 19.719 18.4994 19.7429 18.1667V16.7597C19.7203 16.4306 19.7787 16.1009 19.913 15.7995C19.9617 15.7085 20.0349 15.6329 20.1243 15.5813C20.2137 15.5296 20.3157 15.5041 20.4189 15.5075C20.5229 15.5044 20.6258 15.5299 20.7161 15.5814C20.8065 15.633 20.8808 15.7084 20.9311 15.7995C21.0697 16.0996 21.1303 16.4299 21.1073 16.7597V18.1615C21.1308 18.4943 21.0717 18.8277 20.9352 19.132C20.8863 19.2235 20.8127 19.2995 20.7226 19.3511C20.6326 19.4028 20.5298 19.428 20.4261 19.424L20.4271 19.4281ZM15.6824 19.4281C15.5784 19.432 15.4754 19.4068 15.3849 19.3554C15.2944 19.304 15.2201 19.2284 15.1702 19.1371C15.0337 18.8328 14.9745 18.4994 14.998 18.1667V16.7597C14.9752 16.4306 15.0336 16.1008 15.1681 15.7995C15.2168 15.7085 15.29 15.6329 15.3794 15.5813C15.4688 15.5296 15.5709 15.5041 15.6741 15.5075C15.7781 15.504 15.881 15.5294 15.9715 15.581C16.0619 15.6326 16.1363 15.7082 16.1863 15.7995C16.3249 16.0996 16.3855 16.4299 16.3625 16.7597V18.1615C16.3864 18.4943 16.3273 18.8278 16.1904 19.132C16.1416 19.2236 16.0679 19.2996 15.9779 19.3513C15.8878 19.4029 15.785 19.4281 15.6813 19.424L15.6824 19.4281Z" fill="white"/>
</svg>
