<svg width="40" height="40" viewBox="0 0 40 40" fill="none" xmlns="http://www.w3.org/2000/svg">
<path d="M19.0633 21.4099H13.1172V23.8406H17.5752C17.9532 22.9638 18.4543 22.1453 19.0633 21.4099Z" fill="white"/>
<path d="M34.9916 27.3838C34.9067 25.7956 34.3646 24.2658 33.4305 22.9785C32.4965 21.6911 31.2102 20.7012 29.7267 20.1279C29.0776 19.8789 28.3994 19.7142 27.7085 19.6376C26.561 19.5088 25.3993 19.6238 24.2993 19.9749C23.1993 20.326 22.1858 20.9053 21.3251 21.675C20.4644 22.4447 19.7759 23.3874 19.3046 24.4414C18.8332 25.4955 18.5897 26.6372 18.5898 27.7918C18.5879 29.4154 19.0704 31.0025 19.9757 32.3502C20.0656 32.4841 20.1594 32.6153 20.2571 32.7437C21.2939 34.1153 22.7355 35.1264 24.3782 35.6341C26.0208 36.1418 27.7815 36.1205 29.4114 35.5731C31.0413 35.0258 32.458 33.98 33.4613 32.5837C34.4645 31.1874 35.0037 29.5112 35.0024 27.7918C35.0024 27.7231 34.9952 27.4517 34.9925 27.3838H34.9916ZM27.7085 32.333V34.174H25.8847V32.3502H24.061V30.5265H27.4081C27.65 30.5265 27.8819 30.4304 28.0529 30.2594C28.2239 30.0884 28.32 29.8565 28.32 29.6146C28.32 29.3728 28.2239 29.1409 28.0529 28.9699C27.8819 28.7989 27.65 28.7028 27.4081 28.7028H26.4963C25.8242 28.7024 25.1758 28.4546 24.6748 28.0066C24.1738 27.5586 23.8554 26.9419 23.7802 26.274C23.705 25.6062 23.8784 24.934 24.2672 24.3859C24.6561 23.8377 25.2332 23.4519 25.8883 23.3022V21.4097H27.7121V23.2334H29.2318V25.0572H26.4972C26.2553 25.0572 26.0234 25.1532 25.8524 25.3242C25.6814 25.4952 25.5853 25.7272 25.5853 25.969C25.5853 26.2109 25.6814 26.4428 25.8524 26.6138C26.0234 26.7848 26.2553 26.8809 26.4972 26.8809H27.409C28.109 26.8793 28.7829 27.1463 29.292 27.6267C29.8011 28.1071 30.1065 28.7645 30.1455 29.4634C30.1845 30.1622 29.9539 30.8495 29.5014 31.3835C29.0489 31.9175 28.4088 32.2577 27.713 32.3339L27.7085 32.333Z" fill="white"/>
<path d="M13.1172 32.3494H17.8619C17.4676 31.5804 17.1751 30.7633 16.9917 29.9187H13.1172V32.3494Z" fill="white"/>
<path d="M5.82422 25.6643H11.2945V28.095H5.82422V25.6643Z" fill="white"/>
<path d="M5.82422 21.4099H11.2945V23.8406H5.82422V21.4099Z" fill="white"/>
<path d="M13.1172 28.095H16.7692C16.7692 27.9937 16.7637 27.8923 16.7637 27.791C16.7636 27.0757 16.84 26.3624 16.9917 25.6633H13.1172V28.095Z" fill="white"/>
<path d="M21.0346 19.5871C22.7195 18.3984 24.7314 17.7613 26.7934 17.7633C27.101 17.7633 27.4049 17.7778 27.7053 17.8049V5H5.82422V19.5871H21.0346ZM9.47166 7.73468H24.0587V16.8506H9.47166V7.73468Z" fill="white"/>
<path d="M5.82422 29.9187H11.2945V32.3494H5.82422V29.9187Z" fill="white"/>
<path d="M11.2969 15.0286H22.2365V9.55835H11.2969V15.0286ZM13.1206 11.3821H14.9443V13.2058H13.1206V11.3821Z" fill="white"/>
</svg>
