<svg width="40" height="40" viewBox="0 0 40 40" fill="none" xmlns="http://www.w3.org/2000/svg">
<path d="M26.0167 10.0446C24.2402 7.91684 22.2645 5.96357 20.1165 4.21138C19.9688 4.09627 19.7917 4.02492 19.6055 4.00543C19.4192 3.98595 19.2312 4.01911 19.0629 4.10114C18.8945 4.18318 18.7526 4.31081 18.6531 4.46951C18.5537 4.62822 18.5008 4.81163 18.5004 4.99891V9.39639C18.5004 10.2366 18.1825 12.1706 17.3646 12.6778C16.6271 13.1742 15.078 11.7358 14.369 10.4929C14.2885 10.352 14.175 10.2328 14.0383 10.1455C13.9015 10.0583 13.7456 10.0056 13.5839 9.99195C13.4223 9.97833 13.2597 10.0042 13.1103 10.0674C12.9608 10.1305 12.829 10.229 12.7261 10.3545C9.7001 14.0474 7 18.7047 7 23.4996C7 26.8149 8.31701 29.9944 10.6613 32.3387C13.0056 34.683 16.1851 36 19.5004 36C22.8158 36 25.9953 34.683 28.3396 32.3387C30.6839 29.9944 32.0009 26.8149 32.0009 23.4996C32.0009 18.5806 29.1606 13.8037 26.0185 10.0446H26.0167ZM13.9994 19.9994C13.9994 19.6039 14.1167 19.2172 14.3364 18.8883C14.5562 18.5593 14.8686 18.303 15.234 18.1516C15.5995 18.0002 16.0016 17.9606 16.3896 18.0378C16.7776 18.115 17.134 18.3055 17.4137 18.5852C17.6934 18.8649 17.8839 19.2213 17.9611 19.6092C18.0382 19.9972 17.9986 20.3994 17.8473 20.7648C17.6959 21.1303 17.4395 21.4427 17.1106 21.6624C16.7817 21.8822 16.395 21.9995 15.9994 21.9995C15.4692 21.9988 14.9609 21.7878 14.5859 21.4129C14.211 21.038 14.0001 20.5297 13.9994 19.9994ZM16.7887 28.6131C16.7082 28.7171 16.6079 28.8041 16.4937 28.8693C16.3795 28.9346 16.2536 28.9766 16.1232 28.9932C15.9927 29.0097 15.8602 29.0004 15.7334 28.9658C15.6065 28.9311 15.4877 28.8718 15.3838 28.7913C15.2798 28.7107 15.1928 28.6105 15.1276 28.4963C15.0624 28.3821 15.0203 28.2561 15.0037 28.1257C14.9872 27.9952 14.9965 27.8628 15.0312 27.7359C15.0658 27.609 15.1251 27.4902 15.2056 27.3863L22.2059 18.386C22.2857 18.2801 22.3858 18.1911 22.5003 18.1243C22.6148 18.0574 22.7415 18.014 22.8729 17.9966C23.0044 17.9791 23.138 17.988 23.266 18.0226C23.3939 18.0573 23.5138 18.1171 23.6184 18.1985C23.7231 18.2799 23.8105 18.3813 23.8757 18.4968C23.9408 18.6123 23.9823 18.7396 23.9977 18.8713C24.0132 19.003 24.0023 19.1365 23.9657 19.2639C23.9291 19.3914 23.8675 19.5103 23.7845 19.6137L16.7887 28.6131ZM22.9997 28.9989C22.6041 28.9989 22.2174 28.8816 21.8885 28.6618C21.5596 28.442 21.3032 28.1296 21.1518 27.7642C21.0005 27.3987 20.9609 26.9966 21.038 26.6086C21.1152 26.2206 21.3057 25.8642 21.5854 25.5845C21.8651 25.3048 22.2215 25.1143 22.6095 25.0372C22.9975 24.96 23.3996 24.9996 23.7651 25.151C24.1305 25.3023 24.4429 25.5587 24.6627 25.8876C24.8824 26.2165 24.9997 26.6032 24.9997 26.9988C24.999 27.529 24.7881 28.0373 24.4131 28.4123C24.0382 28.7872 23.5299 28.9981 22.9997 28.9989Z" fill="white"/>
</svg>
