<svg width="40" height="40" viewBox="0 0 40 40" fill="none" xmlns="http://www.w3.org/2000/svg">
<path d="M18.0742 7V23.0697H38.0002V7H18.0742ZM36.0716 17.2847H20.0028V15.9987H36.0725L36.0716 17.2847ZM36.0716 14.7135H20.0028V13.4275H36.0725L36.0716 14.7135ZM36.0716 12.1424H20.0028V10.8564H36.0725L36.0716 12.1424ZM36.0716 9.57118H20.0028V8.28517H36.0725L36.0716 9.57118Z" fill="white"/>
<path d="M32.2107 24.3548H17.4271C17.2567 24.3548 17.0932 24.2871 16.9727 24.1666C16.8522 24.0461 16.7845 23.8826 16.7845 23.7122V12.1423H12.8279C12.3831 12.1419 11.9519 12.2958 11.6079 12.5777L6.14464 19.9561C6.11721 19.9929 6.08614 20.0268 6.05189 20.0573C5.30001 20.7559 4.31153 21.144 3.28517 21.1436C2.28745 21.1436 2 21.8647 2 24.3573V28.8546C2.00044 29.1953 2.13599 29.5219 2.37691 29.7629C2.61783 30.0038 2.94446 30.1393 3.28517 30.1398H3.47486C3.27334 29.4679 3.23169 28.7582 3.35324 28.0673C3.47479 27.3765 3.75616 26.7236 4.1749 26.1609C4.59364 25.5981 5.13814 25.1411 5.76495 24.8262C6.39175 24.5113 7.08349 24.3473 7.78495 24.3473C8.4864 24.3473 9.17814 24.5113 9.80494 24.8262C10.4317 25.1411 10.9763 25.5981 11.395 26.1609C11.8137 26.7236 12.0951 27.3765 12.2167 28.0673C12.3382 28.7582 12.2966 29.4679 12.095 30.1398H27.904C27.7026 29.4683 27.6611 28.759 27.7828 28.0686C27.9045 27.3783 28.186 26.7259 28.6048 26.1638C29.0236 25.6017 29.5682 25.1453 30.1949 24.8312C30.8216 24.5171 31.5131 24.3539 32.2141 24.3548H32.2107ZM15.4985 23.7122H11.6413V22.4271H15.4977L15.4985 23.7122ZM16.1411 20.4985C16.1411 20.6689 16.0734 20.8323 15.9529 20.9528C15.8324 21.0733 15.6689 21.141 15.4985 21.141H7.78495C7.66882 21.1411 7.55485 21.1097 7.45515 21.0502C7.35545 20.9907 7.27374 20.9052 7.21871 20.803C7.16369 20.7007 7.1374 20.5855 7.14264 20.4695C7.14788 20.3534 7.18446 20.241 7.24848 20.1442L10.5725 15.1121C10.5968 15.0759 10.6248 15.0422 10.6561 15.0118C10.9538 14.7126 11.3079 14.4753 11.6979 14.3138C12.0879 14.1523 12.506 14.0697 12.9281 14.0709H15.4993C15.6697 14.0709 15.8332 14.1386 15.9537 14.2591C16.0742 14.3796 16.1419 14.5431 16.1419 14.7135L16.1411 20.4985Z" fill="white"/>
<path d="M32.2031 24.3547C32.9041 24.3539 33.5956 24.517 34.2223 24.8311C34.849 25.1452 35.3936 25.6016 35.8124 26.1637C36.2312 26.7259 36.5128 27.3782 36.6344 28.0686C36.7561 28.759 36.7146 29.4682 36.5132 30.1397H36.7029C37.0436 30.1392 37.3703 30.0037 37.6112 29.7628C37.8521 29.5219 37.9876 29.1952 37.9881 28.8545V24.3547H32.2031Z" fill="white"/>
<path d="M7.78799 25.6409C7.15236 25.6409 6.53102 25.8293 6.00252 26.1825C5.47401 26.5356 5.0621 27.0375 4.81885 27.6248C4.57561 28.212 4.51197 28.8582 4.63597 29.4816C4.75998 30.105 5.06606 30.6776 5.51551 31.1271C5.96497 31.5766 6.5376 31.8826 7.16101 32.0067C7.78442 32.1307 8.4306 32.067 9.01784 31.8238C9.60508 31.5805 10.107 31.1686 10.4601 30.6401C10.8133 30.1116 11.0018 29.4903 11.0018 28.8546C11.0006 28.0026 10.6617 27.1858 10.0592 26.5834C9.45678 25.9809 8.63999 25.642 7.78799 25.6409ZM7.78799 29.4972C7.6609 29.4972 7.53666 29.4595 7.43099 29.3889C7.32531 29.3183 7.24295 29.218 7.19431 29.1005C7.14568 28.9831 7.13296 28.8539 7.15775 28.7293C7.18254 28.6046 7.24374 28.4901 7.33361 28.4003C7.42348 28.3104 7.53798 28.2492 7.66263 28.2244C7.78728 28.1996 7.91648 28.2123 8.03389 28.261C8.15131 28.3096 8.25167 28.392 8.32228 28.4976C8.39289 28.6033 8.43057 28.7276 8.43057 28.8546C8.43035 29.025 8.36258 29.1883 8.24212 29.3088C8.12166 29.4292 7.95834 29.497 7.78799 29.4972Z" fill="white"/>
<path d="M32.2138 25.6409C31.5781 25.6409 30.9568 25.8293 30.4283 26.1825C29.8998 26.5356 29.4879 27.0375 29.2446 27.6248C29.0014 28.212 28.9378 28.8582 29.0618 29.4816C29.1858 30.105 29.4918 30.6776 29.9413 31.1271C30.3907 31.5766 30.9634 31.8826 31.5868 32.0067C32.2102 32.1307 32.8564 32.067 33.4436 31.8238C34.0309 31.5805 34.5328 31.1686 34.8859 30.6401C35.239 30.1116 35.4275 29.4903 35.4275 28.8546C35.4264 28.0026 35.0875 27.1858 34.485 26.5834C33.8825 25.9809 33.0658 25.642 32.2138 25.6409ZM32.2138 29.4972C32.0867 29.4972 31.9624 29.4595 31.8568 29.3889C31.7511 29.3183 31.6687 29.218 31.6201 29.1005C31.5714 28.9831 31.5587 28.8539 31.5835 28.7293C31.6083 28.6046 31.6695 28.4901 31.7594 28.4003C31.8493 28.3104 31.9638 28.2492 32.0884 28.2244C32.2131 28.1996 32.3423 28.2123 32.4597 28.261C32.5771 28.3096 32.6775 28.392 32.7481 28.4976C32.8187 28.6033 32.8563 28.7276 32.8563 28.8546C32.8561 29.025 32.7883 29.1883 32.6679 29.3088C32.5474 29.4292 32.3841 29.497 32.2138 29.4972Z" fill="white"/>
</svg>
