<svg width="40" height="40" viewBox="0 0 40 40" fill="none" xmlns="http://www.w3.org/2000/svg">
<path d="M20.3322 6.66806H18.8682C18.6494 5.8996 18.1862 5.2234 17.5486 4.74194C16.911 4.26047 16.1338 4 15.3348 4C14.5358 4 13.7586 4.26047 13.121 4.74194C12.4834 5.2234 12.0201 5.8996 11.8014 6.66806H10.3311C10.0666 6.6702 9.8136 6.77626 9.62668 6.96335C9.43977 7.15044 9.33393 7.40353 9.33203 7.66799V9.66603C9.33442 10.2843 9.58094 10.8765 10.0179 11.3138C10.4549 11.7512 11.047 11.9982 11.6652 12.001H18.998C19.6159 11.9982 20.2077 11.7514 20.6447 11.3145C21.0816 10.8776 21.3283 10.2858 21.3312 9.66785V7.66981C21.3298 7.40504 21.2241 7.15147 21.0372 6.964C20.8502 6.77652 20.5969 6.6702 20.3322 6.66806Z" fill="white"/>
<path d="M22.9996 8.00123H22.6663V9.66778C22.6665 10.1493 22.5718 10.6262 22.3877 11.0711C22.2035 11.5161 21.9335 11.9204 21.5929 12.2609C21.2524 12.6014 20.8482 12.8714 20.4032 13.0556C19.9583 13.2398 19.4814 13.3344 18.9999 13.3342H11.6661C11.1843 13.3349 10.707 13.2406 10.2617 13.0566C9.81631 12.8727 9.4116 12.6027 9.07071 12.2621C8.72982 11.9216 8.45944 11.5172 8.27504 11.072C8.09064 10.6268 7.99585 10.1496 7.99609 9.66778V8.00123H7.66641C7.18487 8.00099 6.70799 8.09566 6.26306 8.27983C5.81812 8.464 5.41384 8.73406 5.07334 9.07456C4.73283 9.41507 4.46277 9.81934 4.2786 10.2643C4.09443 10.7092 3.99976 11.1861 4 11.6676V28.3341C3.99976 28.8156 4.09443 29.2925 4.2786 29.7374C4.46277 30.1824 4.73283 30.5866 5.07334 30.9271C5.41384 31.2676 5.81812 31.5377 6.26306 31.7219C6.70799 31.906 7.18487 32.0007 7.66641 32.0005H17.0127C16.342 30.5364 15.9962 28.9445 15.9992 27.3341H8.99965C8.7347 27.3341 8.48059 27.2289 8.29324 27.0415C8.10589 26.8542 8.00063 26.6001 8.00063 26.3351C8.00063 26.0702 8.10589 25.816 8.29324 25.6287C8.48059 25.4413 8.7347 25.3361 8.99965 25.3361H16.1863C16.3216 24.5346 16.5499 23.7516 16.8665 23.0029H8.99965C8.86846 23.0029 8.73855 22.9771 8.61734 22.9269C8.49614 22.8767 8.38601 22.8031 8.29324 22.7103C8.20047 22.6175 8.12688 22.5074 8.07668 22.3862C8.02647 22.265 8.00063 22.1351 8.00063 22.0039C8.00063 21.8727 8.02647 21.7428 8.07668 21.6216C8.12688 21.5004 8.20047 21.3902 8.29324 21.2975C8.38601 21.2047 8.49614 21.1311 8.61734 21.0809C8.73855 21.0307 8.86846 21.0049 8.99965 21.0049H17.9327C18.5204 20.1364 19.2231 19.3515 20.0216 18.6717H8.99965C8.7347 18.6717 8.48059 18.5664 8.29324 18.3791C8.10589 18.1917 8.00063 17.9376 8.00063 17.6727C8.00063 17.4077 8.10589 17.1536 8.29324 16.9663C8.48059 16.7789 8.7347 16.6736 8.99965 16.6736H21.6664C21.8269 16.6739 21.985 16.7128 22.1272 16.7871C22.2695 16.8614 22.3918 16.9689 22.4837 17.1005C23.7968 16.4743 25.2184 16.1076 26.6705 16.0207V11.6676C26.6708 11.1857 26.576 10.7085 26.3915 10.2632C26.2071 9.818 25.9366 9.41352 25.5956 9.07295C25.2546 8.73239 24.8498 8.46243 24.4043 8.27852C23.9589 8.09462 23.4815 8.00039 22.9996 8.00123Z" fill="white"/>
<path d="M27.331 18.6682C25.6169 18.6682 23.9412 19.1765 22.5159 20.1289C21.0907 21.0812 19.9798 22.4348 19.3238 24.0185C18.6678 25.6022 18.4962 27.3448 18.8306 29.026C19.165 30.7073 19.9905 32.2516 21.2026 33.4637C22.4147 34.6758 23.959 35.5012 25.6402 35.8356C27.3214 36.17 29.0641 35.9984 30.6477 35.3424C32.2314 34.6864 33.585 33.5756 34.5374 32.1503C35.4897 30.725 35.998 29.0494 35.998 27.3352C35.9954 25.0374 35.0814 22.8344 33.4566 21.2096C31.8318 19.5848 29.6289 18.6709 27.331 18.6682ZM28.0376 32.7081C27.8981 32.8486 27.7197 32.944 27.5254 32.982C27.3312 33.0201 27.13 32.999 26.9478 32.9215C26.8281 32.8722 26.7195 32.7997 26.628 32.7083C26.5365 32.6168 26.464 32.5081 26.4147 32.3884C26.3614 32.2664 26.3342 32.1347 26.3347 32.0015C26.3348 31.8703 26.3608 31.7403 26.4111 31.619C26.4614 31.4978 26.5352 31.3877 26.6281 31.295C26.8194 31.1151 27.0721 31.015 27.3347 31.015C27.5972 31.015 27.8499 31.1151 28.0413 31.295C28.136 31.3837 28.2091 31.4931 28.2547 31.6146C28.308 31.7366 28.3352 31.8684 28.3346 32.0015C28.3345 32.1328 28.3086 32.2628 28.2582 32.384C28.2079 32.5053 28.1342 32.6154 28.0413 32.7081H28.0376ZM29.3018 27.6912C29.0213 27.8752 28.7875 28.122 28.619 28.412C28.4504 28.7021 28.3518 29.0275 28.331 29.3623V29.6693C28.331 29.9342 28.2257 30.1883 28.0384 30.3757C27.851 30.563 27.5969 30.6683 27.332 30.6683C27.067 30.6683 26.8129 30.563 26.6255 30.3757C26.4382 30.1883 26.3329 29.9342 26.3329 29.6693V29.3623C26.3491 28.7127 26.5195 28.0763 26.8299 27.5055C27.1403 26.9347 27.582 26.4458 28.1185 26.0791C28.3026 25.9445 28.4491 25.7649 28.5441 25.5575C28.639 25.3501 28.6792 25.1219 28.6608 24.8945C28.6424 24.6672 28.5661 24.4483 28.439 24.2589C28.3119 24.0695 28.1384 23.9158 27.935 23.8125C27.7316 23.7093 27.5052 23.6599 27.2772 23.6691C27.0493 23.6783 26.8276 23.7458 26.6332 23.8651C26.4388 23.9844 26.2782 24.1515 26.1668 24.3506C26.0554 24.5496 25.9969 24.7739 25.9969 25.002C25.9969 25.1332 25.9711 25.2631 25.9208 25.3843C25.8706 25.5055 25.7971 25.6157 25.7043 25.7084C25.6115 25.8012 25.5014 25.8748 25.3802 25.925C25.259 25.9752 25.1291 26.001 24.9979 26.001C24.8667 26.001 24.7368 25.9752 24.6156 25.925C24.4944 25.8748 24.3842 25.8012 24.2915 25.7084C24.1987 25.6157 24.1251 25.5055 24.0749 25.3843C24.0247 25.2631 23.9988 25.1332 23.9988 25.002C23.999 24.4324 24.1452 23.8723 24.4234 23.3752C24.7017 22.8782 25.1026 22.4607 25.5881 22.1627C26.0735 21.8646 26.6272 21.696 27.1964 21.6728C27.7656 21.6497 28.3312 21.7728 28.8392 22.0303C29.3473 22.2879 29.7809 22.6715 30.0985 23.1443C30.4162 23.6171 30.6074 24.1634 30.6539 24.7312C30.7004 25.2989 30.6006 25.8691 30.3641 26.3873C30.1275 26.9055 29.7621 27.3544 29.3027 27.6912H29.3018Z" fill="white"/>
</svg>
