<svg width="40" height="40" viewBox="0 0 40 40" fill="none" xmlns="http://www.w3.org/2000/svg">
<g clip-path="url(#clip0_430_267)">
<path d="M28.2385 6.09888H26.0264C26.0523 6.246 26.0654 6.39515 26.0655 6.54461V8.50488C26.0647 9.17745 25.8018 9.82226 25.3344 10.2978C24.8671 10.7734 24.2334 11.0409 23.5724 11.0417H15.4277C14.7668 11.0409 14.1331 10.7734 13.6657 10.2978C13.1984 9.82226 12.9355 9.17745 12.9347 8.50488V6.54461C12.9348 6.39515 12.9479 6.24599 12.9738 6.09888H10.7655C10.0334 6.10016 9.33176 6.39663 8.81413 6.92334C8.29651 7.45006 8.00517 8.16407 8.00391 8.90895V33.189C8.00517 33.9339 8.29651 34.6479 8.81413 35.1746C9.33176 35.7013 10.0334 35.9978 10.7655 35.9991H28.2385C28.9706 35.9978 29.6722 35.7013 30.1899 35.1746C30.7075 34.6479 30.9988 33.9339 31.0001 33.189V8.91089C30.9993 8.16567 30.7082 7.45116 30.1905 6.92403C29.6729 6.3969 28.9709 6.10016 28.2385 6.09888ZM12.5357 15.126C12.7465 15.0005 12.9976 14.9653 13.2339 15.0282C13.4701 15.091 13.6722 15.2468 13.7956 15.4613L14.2298 16.2152L16.2886 13.1851C16.3574 13.0839 16.4451 12.9974 16.5467 12.9307C16.6483 12.864 16.7618 12.8182 16.8808 12.7962C16.9998 12.7741 17.1219 12.776 17.2401 12.802C17.3583 12.8279 17.4704 12.8772 17.5699 12.9472C17.6693 13.0172 17.7543 13.1065 17.8199 13.2099C17.8855 13.3133 17.9304 13.4288 17.9521 13.5498C17.9738 13.6709 17.9719 13.7951 17.9464 13.9155C17.9209 14.0358 17.8724 14.1498 17.8036 14.251L14.923 18.4923C14.8379 18.6176 14.724 18.7199 14.5913 18.7903C14.4585 18.8607 14.3109 18.8971 14.1612 18.8964H14.126C13.971 18.8907 13.8198 18.8453 13.6866 18.7643C13.5535 18.6833 13.4425 18.5694 13.3642 18.4332L12.1996 16.409C12.1386 16.3023 12.099 16.1845 12.0829 16.0622C12.0668 15.9399 12.0746 15.8156 12.1058 15.6964C12.137 15.5772 12.1911 15.4655 12.2649 15.3676C12.3386 15.2697 12.4307 15.1876 12.5357 15.126ZM17.8046 21.1764L14.923 25.4167C14.8379 25.542 14.724 25.6443 14.5913 25.7147C14.4585 25.7851 14.3109 25.8215 14.1612 25.8208H14.126C13.971 25.8151 13.8198 25.7697 13.6866 25.6887C13.5535 25.6078 13.4425 25.4939 13.3642 25.3576L12.1996 23.3334C12.1385 23.2271 12.0986 23.1097 12.0821 22.9877C12.0656 22.8658 12.0729 22.7417 12.1035 22.6226C12.1342 22.5035 12.1876 22.3917 12.2607 22.2936C12.3337 22.1956 12.4251 22.1131 12.5295 22.0509C12.6339 21.9887 12.7494 21.9481 12.8692 21.9314C12.9891 21.9146 13.111 21.922 13.228 21.9532C13.3451 21.9844 13.4549 22.0387 13.5513 22.1131C13.6477 22.1874 13.7288 22.2804 13.7899 22.3867L14.2241 23.1405L16.2829 20.1105C16.4218 19.9061 16.6348 19.7661 16.8751 19.7215C17.1154 19.6769 17.3632 19.7313 17.5641 19.8726C17.7651 20.014 17.9026 20.2307 17.9464 20.4752C17.9902 20.7197 17.9368 20.972 17.7979 21.1764H17.8046ZM26.0636 24.971H19.8234C19.579 24.971 19.3447 24.8722 19.1719 24.6964C18.9991 24.5206 18.9021 24.2821 18.9021 24.0335C18.9021 23.7848 18.9991 23.5464 19.1719 23.3706C19.3447 23.1947 19.579 23.096 19.8234 23.096H26.0626C26.307 23.096 26.5413 23.1947 26.7141 23.3706C26.8869 23.5464 26.9839 23.7848 26.9839 24.0335C26.9839 24.2821 26.8869 24.5206 26.7141 24.6964C26.5413 24.8722 26.307 24.971 26.0626 24.971H26.0636ZM26.0636 21.4661H19.8234C19.579 21.4661 19.3447 21.3674 19.1719 21.1915C18.9991 21.0157 18.9021 20.7773 18.9021 20.5286C18.9021 20.28 18.9991 20.0415 19.1719 19.8657C19.3447 19.6899 19.579 19.5911 19.8234 19.5911H26.0626C26.307 19.5911 26.5413 19.6899 26.7141 19.8657C26.8869 20.0415 26.9839 20.28 26.9839 20.5286C26.9839 20.7773 26.8869 21.0157 26.7141 21.1915C26.5413 21.3674 26.307 21.4661 26.0626 21.4661H26.0636ZM26.0636 18.0456H19.8234C19.579 18.0456 19.3447 17.9468 19.1719 17.771C18.9991 17.5952 18.9021 17.3567 18.9021 17.1081C18.9021 16.8594 18.9991 16.621 19.1719 16.4452C19.3447 16.2694 19.579 16.1706 19.8234 16.1706H26.0626C26.307 16.1706 26.5413 16.2694 26.7141 16.4452C26.8869 16.621 26.9839 16.8594 26.9839 17.1081C26.9839 17.3567 26.8869 17.5952 26.7141 17.771C26.5413 17.9468 26.307 18.0456 26.0626 18.0456H26.0636Z" fill="white"/>
<path d="M23.5762 4H15.4277C15.2553 4.00026 15.09 4.07007 14.9681 4.19413C14.8462 4.31819 14.7776 4.48637 14.7773 4.66182V8.50485C14.7776 8.68029 14.8462 8.84848 14.9681 8.97254C15.09 9.0966 15.2553 9.16641 15.4277 9.16667H23.5762C23.7487 9.16641 23.9139 9.0966 24.0359 8.97254C24.1578 8.84848 24.2264 8.68029 24.2266 8.50485V4.66182C24.2264 4.48637 24.1578 4.31819 24.0359 4.19413C23.9139 4.07007 23.7487 4.00026 23.5762 4V4Z" fill="white"/>
</g>
<defs>
<clipPath id="clip0_430_267">
<rect width="23" height="32" fill="white" transform="translate(8 4)"/>
</clipPath>
</defs>
</svg>
