<svg width="40" height="40" viewBox="0 0 40 40" fill="none" xmlns="http://www.w3.org/2000/svg">
<path d="M29.2866 20.834C29.4752 22.5869 29.2125 24.359 28.5234 25.9818L30.9927 29.1708C31.0449 29.2385 31.1104 29.2948 31.1851 29.3363C31.2598 29.3779 31.3422 29.4037 31.4273 29.4124C31.5123 29.421 31.5982 29.4122 31.6798 29.3865C31.7613 29.3609 31.8368 29.3189 31.9015 29.2631C33.033 28.2919 33.9605 27.1059 34.6302 25.7736C35.2998 24.4414 35.6984 22.9895 35.8028 21.502C35.8084 21.4165 35.7963 21.3306 35.7673 21.2499C35.7383 21.1692 35.693 21.0953 35.6343 21.0328C35.5755 20.9704 35.5046 20.9206 35.4258 20.8867C35.347 20.8528 35.2621 20.8355 35.1763 20.8358H29.2866V20.834Z" fill="white"/>
<path d="M23.0898 4.62899V12.426C25.1775 13.3324 26.9112 14.897 28.0264 16.8809H35.1942C35.2782 16.8811 35.3614 16.8644 35.4388 16.8317C35.5162 16.7991 35.5862 16.7512 35.6448 16.691C35.7033 16.6307 35.7491 16.5593 35.7795 16.481C35.8099 16.4026 35.8242 16.319 35.8216 16.235C35.6991 13.0561 34.3919 10.0381 32.157 7.77411C29.9221 5.51016 26.9211 4.16412 23.7441 4.00061C23.6593 3.99686 23.5747 4.01036 23.4954 4.04028C23.416 4.0702 23.3435 4.11592 23.2824 4.17467C23.2212 4.23343 23.1726 4.30399 23.1395 4.38208C23.1064 4.46017 23.0895 4.54417 23.0898 4.62899Z" fill="white"/>
<path d="M19.096 32.2988C16.3483 32.3132 13.7073 31.2355 11.7542 29.3028C9.80102 27.3701 8.69564 24.7406 8.6812 21.9929C8.66676 19.2451 9.74445 16.6042 11.6772 14.651C13.6099 12.6979 16.2394 11.5925 18.9871 11.5781V8.52015C18.9871 8.43533 18.9699 8.35139 18.9365 8.2734C18.9032 8.19541 18.8544 8.12498 18.7931 8.06635C18.7318 8.00772 18.6592 7.96211 18.5798 7.93227C18.5004 7.90242 18.4158 7.88896 18.3311 7.8927C16.1566 7.99488 14.0356 8.60051 12.135 9.66189C10.2345 10.7233 8.60632 12.2114 7.37876 14.0091C6.1512 15.8068 5.35778 17.865 5.06099 20.0215C4.7642 22.178 4.97215 24.374 5.66846 26.4364C6.36476 28.4989 7.53041 30.3715 9.07359 31.9069C10.6168 33.4422 12.4953 34.5983 14.5613 35.284C16.6273 35.9698 18.8243 36.1665 20.9793 35.8588C23.1343 35.551 25.1884 34.747 26.9798 33.5103C27.0497 33.4617 27.1089 33.3994 27.154 33.3271C27.199 33.2549 27.2289 33.1742 27.2417 33.09C27.2546 33.0059 27.2502 32.92 27.2288 32.8375C27.2074 32.7551 27.1694 32.6779 27.1172 32.6107L25.2423 30.1922C23.4735 31.5394 21.3165 32.2787 19.0932 32.2997L19.096 32.2988Z" fill="white"/>
<path d="M10.5078 21.9422C10.5078 23.6188 11.005 25.2577 11.9365 26.6518C12.8679 28.0458 14.1919 29.1323 15.7409 29.774C17.2898 30.4156 18.9943 30.5834 20.6387 30.2564C22.2831 29.9293 23.7935 29.1219 24.9791 27.9364C26.1646 26.7508 26.972 25.2403 27.2991 23.596C27.6262 21.9516 27.4583 20.2471 26.8167 18.6981C26.1751 17.1492 25.0885 15.8252 23.6945 14.8937C22.3005 13.9623 20.6615 13.4651 18.9849 13.4651C16.7376 13.4683 14.5833 14.3624 12.9942 15.9515C11.4051 17.5405 10.511 19.6949 10.5078 21.9422ZM19.927 16.3135V17.2123C20.3815 17.212 20.8312 17.3054 21.2479 17.4867C21.6647 17.668 22.0396 17.9333 22.3491 18.266C22.5204 18.4482 22.6124 18.691 22.6047 18.941C22.597 19.1909 22.4903 19.4276 22.3081 19.5989C22.1259 19.7702 21.8831 19.8621 21.6331 19.8544C21.3832 19.8467 21.1465 19.74 20.9752 19.5578C20.8466 19.4168 20.6908 19.3033 20.5171 19.224C20.3435 19.1447 20.1556 19.1013 19.9648 19.0965H17.9293C17.6762 19.0965 17.4336 19.197 17.2546 19.3759C17.0757 19.5549 16.9752 19.7975 16.9752 20.0506C16.9752 20.3036 17.0757 20.5463 17.2546 20.7252C17.4336 20.9042 17.6762 21.0047 17.9293 21.0047H20.0405C20.419 21.0033 20.794 21.0776 21.1434 21.2233C21.4929 21.3689 21.8096 21.583 22.0751 21.8528C22.3405 22.1227 22.5494 22.4429 22.6892 22.7947C22.8291 23.1465 22.8973 23.5226 22.8896 23.9011C22.882 24.2796 22.7988 24.6527 22.6448 24.9985C22.4909 25.3444 22.2693 25.6559 21.9932 25.9149C21.7171 26.1738 21.3919 26.3749 21.0369 26.5064C20.682 26.6379 20.3043 26.697 19.9261 26.6804V27.5708C19.93 27.6969 19.9086 27.8226 19.863 27.9403C19.8175 28.058 19.7488 28.1653 19.6609 28.2559C19.5731 28.3466 19.468 28.4186 19.3518 28.4678C19.2355 28.517 19.1106 28.5424 18.9844 28.5424C18.8582 28.5424 18.7333 28.517 18.6171 28.4678C18.5009 28.4186 18.3958 28.3466 18.3079 28.2559C18.2201 28.1653 18.1514 28.058 18.1058 27.9403C18.0603 27.8226 18.0388 27.6969 18.0428 27.5708V26.673C17.3007 26.7107 16.5675 26.4985 15.9602 26.0704C15.7643 25.9244 15.6328 25.7081 15.5934 25.467C15.554 25.2259 15.6098 24.9789 15.7491 24.7782C15.8883 24.5775 16.1 24.4386 16.3396 24.391C16.5792 24.3434 16.828 24.3908 17.0333 24.523C17.2634 24.6874 17.5369 24.7801 17.8195 24.7897H20.0396C20.2927 24.7897 20.5355 24.6891 20.7145 24.5101C20.8936 24.3311 20.9941 24.0883 20.9941 23.8351C20.9941 23.582 20.8936 23.3392 20.7145 23.1602C20.5355 22.9811 20.2927 22.8806 20.0396 22.8806H17.9284C17.5519 22.879 17.1794 22.8025 16.8328 22.6556C16.4861 22.5087 16.1721 22.2943 15.9091 22.0249C15.6461 21.7554 15.4394 21.4364 15.3009 21.0863C15.1624 20.7362 15.095 20.362 15.1025 19.9855C15.11 19.6091 15.1924 19.2379 15.3447 18.8936C15.4971 18.5493 15.7165 18.2388 15.99 17.9801C16.2636 17.7214 16.5859 17.5197 16.9381 17.3868C17.2904 17.2539 17.6656 17.1923 18.0419 17.2058V16.3071C18.0379 16.1809 18.0594 16.0553 18.1049 15.9376C18.1504 15.8199 18.2192 15.7126 18.307 15.6219C18.3948 15.5313 18.5 15.4593 18.6162 15.4101C18.7324 15.3609 18.8573 15.3355 18.9835 15.3355C19.1097 15.3355 19.2346 15.3609 19.3508 15.4101C19.467 15.4593 19.5722 15.5313 19.66 15.6219C19.7478 15.7126 19.8166 15.8199 19.8621 15.9376C19.9077 16.0553 19.9291 16.1809 19.9251 16.3071L19.927 16.3135Z" fill="white"/>
</svg>
