<svg width="40" height="40" viewBox="0 0 40 40" fill="none" xmlns="http://www.w3.org/2000/svg">
<path d="M20.005 4C19.0034 4.01383 18.0476 4.42181 17.3447 5.13553C16.6418 5.84925 16.2485 6.81121 16.25 7.81292C16.2988 8.77461 16.7152 9.6808 17.4132 10.3442C18.1111 11.0076 19.0372 11.3776 20.0002 11.3776C20.9631 11.3776 21.8892 11.0076 22.5872 10.3442C23.2851 9.6808 23.7015 8.77461 23.7503 7.81292C23.7519 6.81285 23.3599 5.85233 22.6591 5.13888C21.9583 4.42543 21.0049 4.01634 20.005 4V4Z" fill="white"/>
<path d="M20.0041 11.5625C18.2641 11.5645 16.5961 12.2565 15.3658 13.4868C14.1354 14.7171 13.4434 16.3852 13.4414 18.1251C13.4413 18.2483 13.4654 18.3703 13.5125 18.4841C13.5596 18.598 13.6286 18.7014 13.7157 18.7885C13.8028 18.8756 13.9063 18.9447 14.0201 18.9917C14.1339 19.0388 14.2559 19.063 14.3791 19.0628H25.629C25.7522 19.063 25.8742 19.0388 25.988 18.9917C26.1019 18.9447 26.2053 18.8756 26.2924 18.7885C26.3795 18.7014 26.4485 18.598 26.4956 18.4841C26.5427 18.3703 26.5668 18.2483 26.5667 18.1251C26.5647 16.3852 25.8726 14.7171 24.6423 13.4868C23.412 12.2565 21.744 11.5645 20.0041 11.5625Z" fill="white"/>
<path d="M29.38 20.937C28.6373 20.937 27.9113 21.1572 27.2938 21.5698C26.6763 21.9824 26.195 22.5689 25.9108 23.255C25.6266 23.9412 25.5523 24.6962 25.6972 25.4246C25.842 26.153 26.1996 26.822 26.7248 27.3472C27.2499 27.8723 27.919 28.2299 28.6474 28.3748C29.3758 28.5197 30.1308 28.4454 30.8169 28.1612C31.5031 27.877 32.0895 27.3957 32.5022 26.7782C32.9148 26.1606 33.135 25.4347 33.135 24.692C33.135 23.6961 32.7394 22.741 32.0352 22.0368C31.331 21.3326 30.3759 20.937 29.38 20.937Z" fill="white"/>
<path d="M29.3791 28.4375C27.6327 28.4536 25.9635 29.1587 24.7344 30.3994C23.5054 31.6401 22.816 33.316 22.8164 35.0624C22.8163 35.1855 22.8404 35.3075 22.8875 35.4214C22.9346 35.5352 23.0036 35.6386 23.0907 35.7257C23.1778 35.8128 23.2812 35.8819 23.3951 35.9289C23.5089 35.976 23.6309 36.0002 23.7541 36.0001H35.0662C35.1894 36.0002 35.3114 35.976 35.4252 35.9289C35.5391 35.8819 35.6425 35.8128 35.7296 35.7257C35.8167 35.6386 35.8858 35.5352 35.9328 35.4214C35.9799 35.3075 36.004 35.1855 36.0039 35.0624C35.9902 33.3096 35.2878 31.6325 34.0484 30.3931C32.8089 29.1536 31.1318 28.4512 29.3791 28.4375Z" fill="white"/>
<path d="M10.63 20.937C9.88732 20.937 9.16133 21.1572 8.54383 21.5698C7.92632 21.9824 7.44504 22.5689 7.16083 23.255C6.87663 23.9412 6.80227 24.6962 6.94715 25.4246C7.09204 26.153 7.44967 26.822 7.97481 27.3472C8.49996 27.8723 9.16903 28.2299 9.89742 28.3748C10.6258 28.5197 11.3808 28.4454 12.067 28.1612C12.7531 27.877 13.3395 27.3957 13.7521 26.7782C14.1647 26.1606 14.385 25.4347 14.385 24.692C14.385 23.6961 13.9894 22.741 13.2852 22.0368C12.581 21.3326 11.6259 20.937 10.63 20.937Z" fill="white"/>
<path d="M10.6249 28.4375C8.87209 28.4512 7.19501 29.1536 5.95557 30.3931C4.71613 31.6325 4.01375 33.3096 4 35.0624C3.99986 35.1855 4.02402 35.3075 4.07109 35.4214C4.11816 35.5352 4.18722 35.6386 4.27432 35.7257C4.36142 35.8128 4.46485 35.8819 4.57868 35.9289C4.6925 35.976 4.8145 36.0002 4.93767 36.0001H16.2498C16.373 36.0002 16.495 35.976 16.6088 35.9289C16.7227 35.8819 16.8261 35.8128 16.9132 35.7257C17.0003 35.6386 17.0694 35.5352 17.1164 35.4214C17.1635 35.3075 17.1877 35.1855 17.1875 35.0624C17.1879 33.316 16.4985 31.6401 15.2695 30.3994C14.0405 29.1587 12.3712 28.4536 10.6249 28.4375Z" fill="white"/>
<path d="M24.1693 26.6607L20.9378 25.045V21.8747C20.9378 21.626 20.8391 21.3875 20.6632 21.2116C20.4874 21.0358 20.2489 20.937 20.0002 20.937C19.7515 20.937 19.513 21.0358 19.3371 21.2116C19.1613 21.3875 19.0625 21.626 19.0625 21.8747V25.045L15.8311 26.6607C15.6133 26.7746 15.449 26.9695 15.3735 27.2033C15.298 27.4371 15.3173 27.6913 15.4272 27.9111C15.5372 28.1308 15.729 28.2986 15.9614 28.3784C16.1939 28.4582 16.4483 28.4435 16.67 28.3376L19.9959 26.6725L23.3217 28.3376C23.5435 28.4435 23.7979 28.4582 24.0303 28.3784C24.2628 28.2986 24.4546 28.1308 24.5645 27.9111C24.6745 27.6913 24.6938 27.4371 24.6182 27.2033C24.5427 26.9695 24.3784 26.7746 24.1607 26.6607H24.1693Z" fill="white"/>
</svg>
