<svg width="40" height="40" viewBox="0 0 40 40" fill="none" xmlns="http://www.w3.org/2000/svg">
<path d="M8.44716 17.9267C8.50236 17.9914 8.57126 18.0431 8.64886 18.0779C8.72647 18.1128 8.81086 18.13 8.89592 18.1283C9.16248 18.1165 9.30841 17.9115 9.45856 17.7242L9.86008 17.224L10.901 15.925L11.4729 15.2113C11.5508 15.0977 11.5828 14.9588 11.5623 14.8226C11.5418 14.6864 11.4704 14.563 11.3625 14.4774C11.2546 14.3917 11.1182 14.3502 10.9809 14.3612C10.8436 14.3721 10.7156 14.4348 10.6226 14.5365L9.41132 16.0397V15.9553C9.41556 13.7925 10.2775 11.7196 11.8082 10.1916C13.3388 8.66347 15.4131 7.80491 17.5759 7.80424C17.6472 7.80424 17.7179 7.79019 17.7838 7.76289C17.8497 7.73559 17.9096 7.69558 17.96 7.64514C18.0105 7.59469 18.0505 7.5348 18.0778 7.4689C18.1051 7.40299 18.1191 7.33235 18.1191 7.26101C18.1191 7.18967 18.1051 7.11903 18.0778 7.05312C18.0505 6.98721 18.0105 6.92733 17.96 6.87688C17.9096 6.82644 17.8497 6.78642 17.7838 6.75912C17.7179 6.73182 17.6472 6.71777 17.5759 6.71777C15.1247 6.71844 12.7738 7.69138 11.039 9.42315C9.30425 11.1549 8.32723 13.5041 8.32232 15.9553V16.0397L7.11438 14.5323C7.02109 14.432 6.89341 14.3705 6.75681 14.3603C6.62022 14.35 6.48477 14.3916 6.37752 14.4768C6.27027 14.562 6.1991 14.6845 6.17823 14.8199C6.15736 14.9553 6.18832 15.0936 6.26494 15.2071L6.77106 15.8414L7.75715 17.0722C7.97731 17.3471 8.18988 17.6289 8.41763 17.8963L8.44716 17.9267Z" fill="white"/>
<path d="M32.1533 21.5986C32.0994 21.5347 32.0321 21.4834 31.9561 21.4486C31.8801 21.4137 31.7974 21.3961 31.7138 21.397C31.3764 21.4088 31.1849 21.7479 30.996 21.9875L30.3405 22.8057C29.9536 23.2893 29.5662 23.7727 29.1781 24.2557L29.1309 24.3148C29.0543 24.4283 29.0233 24.5666 29.0442 24.702C29.0651 24.8374 29.1362 24.9599 29.2435 25.0451C29.3507 25.1303 29.4862 25.1719 29.6228 25.1616C29.7594 25.1513 29.8871 25.0899 29.9804 24.9896L31.1883 23.4822V23.5666C31.184 25.7294 30.3221 27.8022 28.7914 29.3303C27.2608 30.8584 25.1866 31.717 23.0237 31.7176C22.8796 31.7176 22.7415 31.7749 22.6396 31.8768C22.5377 31.9786 22.4805 32.1168 22.4805 32.2609C22.4805 32.405 22.5377 32.5431 22.6396 32.645C22.7415 32.7469 22.8796 32.8041 23.0237 32.8041C25.4749 32.8034 27.8258 31.8305 29.5606 30.0987C31.2953 28.367 32.2724 26.0178 32.2773 23.5666V23.4822L33.4852 24.9896C33.5782 25.0913 33.7062 25.154 33.8435 25.1649C33.9808 25.1759 34.1172 25.1344 34.2251 25.0488C34.333 24.9631 34.4044 24.8397 34.4249 24.7035C34.4454 24.5673 34.4134 24.4284 34.3355 24.3148L33.4473 23.2064L32.2495 21.7125C32.2174 21.672 32.1862 21.6349 32.1533 21.5986Z" fill="white"/>
<path d="M36.09 9.26447H35.546V9.03418C35.552 8.63433 35.4777 8.23733 35.3273 7.86677C35.177 7.4962 34.9537 7.15962 34.6708 6.87701C34.3879 6.59439 34.051 6.3715 33.6803 6.22157C33.3096 6.07164 32.9125 5.99772 32.5126 6.00421C31.9937 5.97937 31.4754 6.0647 30.9918 6.25457C30.5083 6.44445 30.0704 6.73458 29.707 7.10586C29.6573 7.10165 29.6092 7.09068 29.5577 7.09068H27.3806C27.3291 7.09068 27.281 7.1008 27.2313 7.10586C26.8679 6.73458 26.43 6.44445 25.9464 6.25457C25.4629 6.0647 24.9446 5.97937 24.4257 6.00421C24.0255 5.99738 23.628 6.07106 23.2569 6.22088C22.8858 6.3707 22.5485 6.5936 22.2653 6.87633C21.982 7.15906 21.7584 7.49585 21.6079 7.86669C21.4573 8.23753 21.3829 8.63484 21.3889 9.03503V9.26447H20.8449C20.7007 9.26447 20.5624 9.32168 20.4604 9.42353C20.3584 9.52538 20.301 9.66355 20.3008 9.80771V11.9815C20.301 12.1256 20.3584 12.2638 20.4604 12.3657C20.5624 12.4675 20.7007 12.5247 20.8449 12.5247H21.3889V19.5851C21.3892 19.7293 21.4466 19.8674 21.5486 19.9693C21.6506 20.0711 21.7889 20.1284 21.933 20.1283H26.2933V12.5247H27.3822V20.1326H29.5594V12.5247H30.6484V20.1326H35.0027C35.1469 20.1326 35.2852 20.0754 35.3872 19.9735C35.4892 19.8717 35.5466 19.7335 35.5468 19.5893V12.5247H36.0909C36.2351 12.5247 36.3733 12.4675 36.4753 12.3657C36.5774 12.2638 36.6347 12.1256 36.635 11.9815V9.80771C36.6349 9.73626 36.6207 9.66553 36.5932 9.59956C36.5658 9.53359 36.5256 9.47367 36.475 9.42323C36.4244 9.37279 36.3644 9.3328 36.2983 9.30556C36.2323 9.27832 36.1615 9.26436 36.09 9.26447ZM27.3814 9.25941C27.2773 9.25663 27.176 9.22505 27.0887 9.16817C27.0014 9.11129 26.9316 9.03133 26.8871 8.93718C26.8497 8.84882 26.836 8.75221 26.8474 8.65693C26.8588 8.56164 26.8949 8.47099 26.9521 8.39394C27.1292 8.16113 27.4101 8.17884 27.6724 8.17884H29.389C29.5132 8.15974 29.6403 8.17706 29.7548 8.22871C29.8694 8.28037 29.9664 8.36413 30.0343 8.46986C30.0789 8.55656 30.0997 8.65349 30.0946 8.75082C30.0896 8.84816 30.0589 8.94242 30.0057 9.02406C29.7762 9.36148 29.2625 9.26616 28.909 9.267C28.4324 9.267 27.9559 9.267 27.475 9.267C27.4434 9.26573 27.4119 9.26292 27.3806 9.25856L27.3814 9.25941ZM35.546 11.4383H21.3931V10.3509H35.546V11.4383Z" fill="white"/>
<path d="M13.2277 27.4565H12.6836V29.6303H13.2277C13.5159 29.6303 13.7924 29.5158 13.9962 29.312C14.2001 29.1082 14.3146 28.8317 14.3146 28.5434C14.3146 28.2552 14.2001 27.9787 13.9962 27.7749C13.7924 27.571 13.5159 27.4565 13.2277 27.4565Z" fill="white"/>
<path d="M9.96094 25.2829C9.96161 25.5713 10.0766 25.8476 10.2808 26.0513C10.485 26.255 10.7616 26.3694 11.0499 26.3694H11.5915V24.1956H11.0474C10.7593 24.1962 10.4832 24.311 10.2796 24.5148C10.076 24.7186 9.96138 24.9948 9.96094 25.2829Z" fill="white"/>
<path d="M12.1376 18.7622C10.526 18.7649 8.95143 19.2452 7.61277 20.1425C6.27411 21.0397 5.23147 22.3137 4.6166 23.8033C4.00173 25.293 3.84224 26.9315 4.15827 28.5117C4.47431 30.092 5.25168 31.5431 6.39217 32.6817C7.53265 33.8203 8.98505 34.5953 10.5658 34.9087C12.1466 35.2221 13.7848 35.0599 15.2735 34.4426C16.7621 33.8253 18.0343 32.7805 18.9294 31.4404C19.8244 30.1002 20.3021 28.5248 20.3022 26.9133C20.2979 24.7504 19.4359 22.6776 17.9053 21.1495C16.3747 19.6214 14.3004 18.7629 12.1376 18.7622ZM13.2266 30.7168H12.6825V31.26C12.6825 31.4044 12.6251 31.5429 12.523 31.645C12.4209 31.7471 12.2824 31.8045 12.138 31.8045C11.9936 31.8045 11.8551 31.7471 11.753 31.645C11.6509 31.5429 11.5935 31.4044 11.5935 31.26V30.7168H9.96211C9.81803 30.7168 9.67986 30.6595 9.57798 30.5577C9.4761 30.4558 9.41887 30.3176 9.41887 30.1736C9.41887 30.0295 9.4761 29.8913 9.57798 29.7894C9.67986 29.6875 9.81803 29.6303 9.96211 29.6303H11.5935V27.4565H11.0494C10.7604 27.4622 10.4732 27.4102 10.2045 27.3035C9.93582 27.1969 9.69112 27.0377 9.48472 26.8353C9.27831 26.6329 9.11434 26.3914 9.0024 26.1249C8.89047 25.8584 8.83281 25.5722 8.83281 25.2831C8.83281 24.9941 8.89047 24.7079 9.0024 24.4414C9.11434 24.1749 9.27831 23.9334 9.48472 23.731C9.69112 23.5286 9.93582 23.3694 10.2045 23.2628C10.4732 23.1561 10.7604 23.1041 11.0494 23.1098H11.5935V22.5666C11.5935 22.4221 11.6509 22.2836 11.753 22.1815C11.8551 22.0794 11.9936 22.022 12.138 22.022C12.2824 22.022 12.4209 22.0794 12.523 22.1815C12.6251 22.2836 12.6825 22.4221 12.6825 22.5666V23.1098H14.3156C14.4597 23.1098 14.5978 23.167 14.6997 23.2689C14.8016 23.3708 14.8588 23.5089 14.8588 23.653C14.8588 23.7971 14.8016 23.9353 14.6997 24.0372C14.5978 24.139 14.4597 24.1963 14.3156 24.1963H12.6825V26.3701H13.2266C13.5156 26.3644 13.8028 26.4164 14.0715 26.523C14.3402 26.6297 14.5849 26.7889 14.7913 26.9913C14.9977 27.1936 15.1617 27.4352 15.2736 27.7017C15.3855 27.9682 15.4432 28.2543 15.4432 28.5434C15.4432 28.8325 15.3855 29.1186 15.2736 29.3852C15.1617 29.6517 14.9977 29.8932 14.7913 30.0956C14.5849 30.298 14.3402 30.4571 14.0715 30.5638C13.8028 30.6705 13.5156 30.7225 13.2266 30.7168Z" fill="white"/>
</svg>
